<svg xmlns="http://www.w3.org/2000/svg" xmlns:xlink="http://www.w3.org/1999/xlink" preserveAspectRatio="xMidYMid" width="40" height="40" viewBox="0 0 40 40">
  <defs>
    <style>
      .cls-1 {
        fill: #1a80b6;
        fill-rule: evenodd;
      }
    </style>
  </defs>
  <path d="M13.382,20.610 L22.743,29.971 C22.877,30.105 23.032,30.172 23.205,30.172 C23.380,30.172 23.534,30.105 23.668,29.971 L24.672,28.967 C24.806,28.833 24.873,28.679 24.873,28.505 C24.873,28.330 24.806,28.176 24.672,28.043 L16.777,20.148 L24.672,12.252 C24.806,12.118 24.873,11.964 24.873,11.790 C24.873,11.616 24.806,11.462 24.672,11.328 L23.668,10.324 C23.534,10.190 23.380,10.123 23.205,10.123 C23.032,10.123 22.877,10.190 22.743,10.324 L13.382,19.685 C13.248,19.819 13.181,19.973 13.181,20.148 C13.181,20.321 13.248,20.476 13.382,20.610 L13.382,20.610 Z" class="cls-1"/>
</svg>
