<svg xmlns="http://www.w3.org/2000/svg" xmlns:xlink="http://www.w3.org/1999/xlink" preserveAspectRatio="xMidYMid" width="40" height="40" viewBox="0 0 40 40">
  <defs>
    <style>
      .cls-1 {
        fill: #1a80b6;
        fill-rule: evenodd;
      }
    </style>
  </defs>
  <path d="M26.618,19.390 L17.257,10.029 C17.123,9.895 16.968,9.828 16.795,9.828 C16.620,9.828 16.466,9.895 16.332,10.029 L15.328,11.033 C15.194,11.167 15.127,11.321 15.127,11.495 C15.127,11.670 15.194,11.824 15.328,11.957 L23.223,19.852 L15.328,27.748 C15.194,27.882 15.127,28.036 15.127,28.210 C15.127,28.384 15.194,28.538 15.328,28.672 L16.332,29.676 C16.466,29.810 16.620,29.877 16.795,29.877 C16.968,29.877 17.123,29.810 17.257,29.676 L26.618,20.315 C26.752,20.181 26.819,20.027 26.819,19.852 C26.819,19.679 26.752,19.524 26.618,19.390 L26.618,19.390 Z" class="cls-1"/>
</svg>
