<?xml version="1.0" encoding="UTF-8" standalone="no"?>
<!-- Created with Inkscape (http://www.inkscape.org/) -->

<svg
   xmlns:dc="http://purl.org/dc/elements/1.1/"
   xmlns:cc="http://creativecommons.org/ns#"
   xmlns:rdf="http://www.w3.org/1999/02/22-rdf-syntax-ns#"
   xmlns:svg="http://www.w3.org/2000/svg"
   xmlns="http://www.w3.org/2000/svg"
   xmlns:sodipodi="http://sodipodi.sourceforge.net/DTD/sodipodi-0.dtd"
   xmlns:inkscape="http://www.inkscape.org/namespaces/inkscape"
   width="78.813286mm"
   height="91.476662mm"
   viewBox="0 0 78.813286 91.476662"
   version="1.1"
   id="svg8"
   sodipodi:docname="drawing.svg"
   inkscape:version="0.92.1 unknown">
  <defs
     id="defs2" />
  <sodipodi:namedview
     id="base"
     pagecolor="#ffffff"
     bordercolor="#666666"
     borderopacity="1.0"
     inkscape:pageopacity="0.0"
     inkscape:pageshadow="2"
     inkscape:zoom="1.4"
     inkscape:cx="222.25185"
     inkscape:cy="180.7025"
     inkscape:document-units="mm"
     inkscape:current-layer="layer1"
     showgrid="true"
     inkscape:window-width="1855"
     inkscape:window-height="1056"
     inkscape:window-x="65"
     inkscape:window-y="24"
     inkscape:window-maximized="1"
     inkscape:pagecheckerboard="false"
     fit-margin-top="0"
     fit-margin-left="0"
     fit-margin-right="0"
     fit-margin-bottom="0">
    <inkscape:grid
       type="xygrid"
       id="grid3771"
       originx="-65.616703"
       originy="-204.99947" />
  </sodipodi:namedview>
  <metadata
     id="metadata5">
    <rdf:RDF>
      <cc:Work
         rdf:about="">
        <dc:format>image/svg+xml</dc:format>
        <dc:type
           rdf:resource="http://purl.org/dc/dcmitype/StillImage" />
        <dc:title></dc:title>
      </cc:Work>
    </rdf:RDF>
  </metadata>
  <g
     inkscape:label="Layer 1"
     inkscape:groupmode="layer"
     id="layer1"
     style="display:inline"
     transform="translate(-65.616702,-0.52387393)">
    <path
       style="fill:#4899c3;stroke-width:0.52542013"
       d="M 85.188593,80.60181 65.616702,69.220156 V 46.305377 23.390579 L 85.319967,11.957224 105.02333,0.52387393 124.7264,11.957224 144.42999,23.390579 v 22.915425 22.915385 l -19.64277,11.398072 c -10.80339,6.268932 -19.72907,11.390392 -19.83457,11.381062 -0.10572,-0.0075 -8.999508,-5.138749 -19.764057,-11.398713 z M 124.20105,79.177656 142.59081,68.483253 V 46.306004 24.128694 L 124.20105,13.434267 C 114.08668,7.5523214 105.45655,2.7398094 105.02333,2.7398094 c -0.43365,0 -9.063621,4.812512 -19.177921,10.6944576 L 67.455652,24.128694 v 22.17731 22.177249 l 18.389757,10.694403 c 10.1143,5.881995 18.744271,10.694449 19.177921,10.694449 0.43322,0 9.06335,-4.812454 19.17772,-10.694449 z M 87.129976,77.073264 69.55736,66.881871 V 46.294973 25.708068 L 80.853905,19.155094 C 87.066961,15.550961 94.999533,10.959076 98.481753,8.9508453 l 6.331527,-3.6512657 17.57547,10.1984144 17.57526,10.198428 v 20.600984 20.601003 l -14.44934,8.397808 c -7.94722,4.618849 -15.88074,9.20123 -17.63034,10.183154 l -3.18179,1.785251 z m 35.757714,-0.948902 16.5508,-9.629071 V 46.310058 26.124817 L 122.12252,16.071949 104.80628,6.0191135 95.063047,11.660148 c -5.358718,3.102569 -13.171438,7.631794 -17.361655,10.065088 l -7.618614,4.424033 V 46.31212 66.474931 L 87.421617,76.55265 c 12.270158,7.131638 17.569273,9.949534 18.127073,9.639269 0.43325,-0.241186 8.23571,-4.771575 17.339,-10.067557 z"
       id="path3745"
       inkscape:connector-curvature="0" />
    <path
       style="fill:#e7f5fd;stroke-width:0.71428573"
       d="m 387.39904,320.81662 c -13.65255,-6.891 -31.28818,-16.89927 -94.07563,-53.38817 l -27.5,-15.98161 -0.16377,-76.39397 -0.16378,-76.393955 5.87806,-3.313171 c 3.23293,-1.822243 32.5378,-18.7776 65.12194,-37.678571 32.58413,-18.90097 59.42341,-34.363218 59.64285,-34.36055 0.21944,0.0027 29.64898,16.985643 65.39898,37.739945 l 65,37.735097 0.1818,76.130455 0.1818,76.13046 -20.1818,11.75242 c -80.46917,46.85943 -107.93873,62.64864 -108.9825,62.64195 -0.65962,-0.004 -5.3117,-2.08337 -10.33795,-4.62033 z"
       id="path3747"
       inkscape:connector-curvature="0"
       transform="scale(0.26458333)" />
  </g>
</svg>
