<svg xmlns="http://www.w3.org/2000/svg" id="Layer_2" viewBox="-616 716 366 770">
  <style>
    .st0{fill:#22292D;} .st1{fill:#F49019;} .st2{fill:#191919;} .st3{fill:#282D30;} .st4{opacity:0.15;enable-background:new ;} .st5{fill:#FFB564;} .st6{display:none;fill:#FF5B00;} .st7{fill:#FFFFFF;} .st8{fill:#0F0F0F;} .st9{fill:#D9D9D9;} .st10{fill:#0091DA;} .st11{fill:#3F4A4F;} .st12{opacity:0.25;fill:#0F1416;enable-background:new ;} .st13{opacity:0.15;} .st14{fill:#151A1C;} .st15{fill:#101516;}
  </style>
  <path d="M-306.5 1182.4l-2.6-26.1-126.4 1.2c-.4 8.7-.9 17.2-1.6 25.2-4.5 55.3-8 183-5.4 303.2h28.5c.6-124.6 8.2-260 42.1-257.6 13.9 1 27 44.8 32.6 139.9 2.7 45.6 3.9 87 4.4 117.8h30.7c-4.5-224.6-.8-240.5-2.3-303.6z" class="st0"/>
  <path d="M-378.4 904.5v21.1l26.2-13.8-4.1-24.6-22.1 17.3zM-398.5 930.8l7.1 37.8 23.6.9-1.5-39.3-29.2.6zM-382.7 904.5v21.1l-26.3-12.9 4.6-24.9 21.7 16.7zM-435.7 1161.5h127.3l-2.1-21.4-123.6 1.2c-.4 6.9-1.1 13.7-1.6 20.2z" class="st1"/>
  <path d="M-308.4 1168.3c3.6-4 2.3-18.3-2.1-21.4-66.5 29.9-123.6 3.4-123.6 3.4-.3 6.9-1.5 11.8-2 18.3 0 0 66.1 11.9 127.7-.3z" class="st2"/>
  <path d="M-436.7 1168.1s45.9 10 56.8 3.3c5.3-3.3 5-10.3 5-10.3s-.8 6.2 3.7 9.7c11.8 9.2 62.1-4 62.1-4l-6.9-81.2c-7.6-60.1.3-99.6.3-99.6s-5-56 12.8-61.6c0 0 4.3-12.8-50-16.7 0 0-6.4 22-18.8 25.4-2.3.6-6.8 32.9-6.8 32.9s-7.6-34.2-10.3-35c-6.1-1.9-12.8-15.7-19.1-23.9 0 0-29 6.6-39.4 9-2.4.5-6.5.7-6.8 3.1l10.2 75.4c1.6-4.3 7.2-11.7 7.2-11.7s3.9 109.3 0 185.2z" class="st3"/>
  <path d="M-332.6 1167.1l23.5-.2-4.4-51c-1 3.3-2.6 6.2-4.4 9.3-4.1 7.1-7.2 14.5-9.7 22.3-2 6.4-3.6 12.9-5 19.6z" class="st4"/>
  <path d="M-320.5 947.4c-3.4 9.9-.3 39.6-.3 39.6s19.2 50.1 27 68.3c7.8 18.2 3.9 23.9 2.6 25.6-1.3 1.8-39.5 88.9-39.5 88.9l30.6 21.8c13.9-17.4 48.1-115.8 48.1-115.8-2.1-33.4-50.9-151.5-50.9-151.5s-7.4-7-17.6 23.1z" class="st3"/>
  <path d="M-307.7 1178.8c-4.4-3.7-11.5-11-22.7-9.1l30.3 21.9s-3.5-9.3-7.6-12.8z" class="st4"/>
  <path d="M-306.1 1189.8c.8-4.2 2.3-7.2-.2-9.6-4.1-3.8-14.4-13-20-10-9.1 4.9-6.7 9.9-18.9 8.2 0 0-6.7 5.1 1.4 7.1 4.1 1 8.5.7 11.9-.7 0 0-1.8 6.5-4.5 11.9 8.9.7 17.9 1.9 26.7 3.8 1.6-3.2 2.9-6.8 3.6-10.7zM-311 815.2l-34.3-24.6 5.7 37.8 22.2 15zM-316.9 850.4l-30.1 29.7h40.9z" class="st1"/>
  <path d="M-346.3 843.4l-2.6 33.5 30.1-29.7-17-12.4-5.4.3zM-352.2 876.9l2.4-31.7-3.4 2.8-11.9-.8zM-356.3 828.4h14.1l-5.4-37.8-30.5 27.4zM-348.9 788.7l-29.6-21.6V816z" class="st5"/>
  <path d="M-531.4 992.8l-19 14.5v3.1l11.3-3.3 8-8z" class="st6"/>
  <path d="M-380 900.5l12.2-8.9-8.6-6.4H-383.7l-8.6 6.4 12.3 8.9z"/>
  <path d="M-420.5 828.4l5.7-37.8-34.3 24.6 6.5 28.2zM-443.2 850.4l-10.8 29.7h41z" class="st1"/>
  <path d="M-441.3 847.2l30.2 29.7-2.6-33.5-5.2-8.3-5.4-.3zM-406.9 848l-3.3-2.8 2.3 31.7 13-29.7zM-412.5 790.6l-5.4 37.8h14.1L-382 818zM-411.1 788.7l29.5 27.3v-48.9z" class="st5"/>
  <path d="M-380 820.6l-20.3 10.4 9.6 14.2-15.6 34.9 12 10 10-7.5h8.5l10 7.5 12.1-10-15.7-34.9 9.6-14.2-20.2-10.4z" class="st1"/>
  <path d="M-571.9 992.8l-.3 6.3 7.9 8 11.3 3.3v-3.1z" class="st6"/>
  <path d="M-398.3 841.8s-3.1 6.8-11.5 1.8c-7.2-5.7-2.7-11-2.7-11l-7.9.1 13.6-2.4 6.6 4 4.8 11.3-2.9-3.8z" class="st2"/>
  <ellipse cx="-406.1" cy="837.6" class="st7" rx="1.3" ry="3.3"/>
  <ellipse cx="-408.9" cy="835" class="st7" rx="1" ry="1"/>
  <path d="M-362.2 841.8s3.1 6.8 11.5 1.8c7.2-5.7 2.7-11 2.7-11l7.9.1-13.6-2.4-6.6 4-4.8 11.3 2.9-3.8z" class="st2"/>
  <ellipse cx="-354.3" cy="837.6" class="st7" rx="1.3" ry="3.3"/>
  <ellipse cx="-351.6" cy="835" class="st7" rx="1" ry="1"/>
  <path d="M-296.8 743.3l-65.5 31.4 14.4 10.2 19.8 14z" class="st5"/>
  <path d="M-326.9 799.8l16.8 11.9 41-95.7-107.8 48.4 13.1 9.3.8-.4 65.6-31.4 4.4-2.2-2.4 4.3-31.4 55.7z" class="st1"/>
  <path d="M-463.8 743.3l31.4 55.6 34.2-24.2z" class="st5"/>
  <path d="M-491 716l41 95.7 16.5-11.7-.2-.3-31.4-55.7-2.4-4.3 4.4 2.2 65.6 31.4 1 .5 13.4-9.4z" class="st1"/>
  <path d="M-447 834.1l8.4 17.7 42.1 11.9 12.6-16.9v-9.2h8.4v9.2l12.6 16.9 42.1-11.9 8.4-17.7-10-6.6H-368l-7.5 6.7h-8.4l-7.5-6.7H-437z" class="st8"/>
  <path d="M-346.4 914.2c-.9 2.8-18.6 35.6-18.6 35.6l-11.8-20.8 26.5-23.7c2.8 1.7 4 9 3.9 8.9zM-408.6 905c-3.2 4.7-3.2 9.6-3.2 9.6.4 7.1 8.8 32.9 8.8 32.9 2.5-.7 18.4-17.9 18.4-17.9l-24-24.6z" class="st7"/>
  <path d="M-366.9 913.2l-13.9 9-13.9-10-15.7-.6s9.6 53.4 16.6 74.2c8.1 24.1 14.7 49.7 14.7 49.7s1.7-18.9 9.3-43.3c7.6-24.3 19.6-78.4 19.6-78.4l-16.7-.6z" class="st9"/>
  <path d="M-385.6 937.6c-1.1 3.8-9.3 44-9.3 44 3.3 12.4 15.8 54 15.8 54l11.1-50c-.6-3.7-9.1-48.3-9.1-48.3s-7.5-3.5-8.5.3z" class="st10"/>
  <path d="M-377.1 940.8c-1.4.3-8.5.2-10-1.2s-7.7-15.2-7.7-15.2c7.4-4.5 25.1-.7 25.1-.7 1 2.2-5.9 16.7-7.4 17.1z" class="st10"/>
  <path d="M-352.7 907.5s-10.3 51.8-15.9 75.1-10.6 52.9-10.6 52.9c18.2-20.7 50-81.1 49.7-82.7-.3-1.6-21.3-16-21.3-16s30.2-9 28.5-11.9c-1.7-2.9-28.1-17.5-28.1-17.5l-2.3.1zM-434.5 920.7c.8 2.4 24.5 10.7 24.5 10.7l-23.9 13.3c12.7 38 54.7 90.8 54.7 90.8s-17.8-67.5-20.4-78.6c-2.6-11.1-7.1-50.9-7.1-50.9s-28.7 12.2-27.8 14.7z" class="st11"/>
  <path d="M-350.4 907.4c-.9 2.8-18.6 35.6-18.6 35.6l-11.9-20.8 26.5-23.7c2.8 1.7 4 8.9 4 8.9zM-406.4 899.2c-2.9 4.8-2.6 9.7-2.6 9.7.9 7.1 10.9 32.3 10.9 32.3 2.4-.9 17.2-19 17.2-19l-25.5-23z" class="st7"/>
  <path d="M-378.4 1051.4c-3.8.6-5.2-5.4-2.5-6.3 2.7-.8 6.1 5.8 2.5 6.3zM-396.8 936.9c-2.2.1-2.8-3.3-1.2-3.7 1.6-.3 3.4 3.6 1.2 3.7zM-368.9 938.2c-2.1.3-2.9-3.1-1.4-3.6s3.4 3.3 1.4 3.6zM-374.5 1083.5c-3.8.6-5.2-5.4-2.5-6.3 2.7-.8 6.1 5.8 2.5 6.3zM-375.7 1116.7c-3.8.6-5.2-5.4-2.5-6.3 2.8-.8 6.2 5.8 2.5 6.3zM-377.3 1144.6c-3.8.6-5.2-5.4-2.5-6.3 2.7-.9 6.3 5.7 2.5 6.3z" class="st12"/>
  <g class="st13">
    <path d="M-371.8 1058.6c.2 2.2.5 4.5.7 6.7.1 1.1.3 2.2.4 3.3 0 .6.1 1.1.2 1.6s.2 1.1.3 1.6c.4 2.2.6 4.3.8 6.4.2 2.1.3 4.2.4 6.2.7 16.2-.1 30.2-1.1 41.5s-2.3 20.1-3.3 26c-1.1 5.9-1.7 9-1.7 9 1.5-13.2 3-28 3.7-42.8.3-7.4.6-14.8.6-22 0-7.1-.1-14.1-.7-20.6l-.3-2.4c-.1-.8-.3-1.5-.4-2.3-.2-1.6-.4-3.2-.5-4.7-.2-3-.4-5.9-.6-8.7-.3-5.5-.6-10.4-.8-14.5-.4-8.2-.6-13.1-.6-13.1 1 10.2 1.9 19.8 2.9 28.8z" class="st14"/>
  </g>
  <g class="st13">
    <path d="M-282.7 1071.4c2-.7 3.7-1.3 5.1-1.7 1.5-.5 2.6-.7 3.4-.9.8-.2 1.2-.2 1.2-.2-2.7 2.4-6.8 4.2-10.3 4.8-1.7.4-3.3.4-4.4.4-.6 0-1-.1-1.3-.1h-.5c2.7-.8 4.9-1.6 6.8-2.3z" class="st14"/>
  </g>
  <g class="st13">
    <path d="M-285 1069.6c.6-1.1 1.2-2.1 1.7-3 1.1-1.9 2.3-3.5 3.5-4.6 1.2-1.2 2.4-1.7 3.2-1.9.9-.2 1.3-.2 1.3-.2-1.5 1.1-2.7 2.4-3.8 4-1.1 1.6-2.2 3.3-3.3 4.7s-2.3 2.6-3.3 3.2c-.5.4-.9.6-1.2.7l-.4.2c1-1 1.8-2.1 2.3-3.1z" class="st14"/>
  </g>
  <g class="st13">
    <path d="M-276.3 1079.2c-2.8.2-5.2 0-7.2-.3-2-.4-3.4-.9-4.4-1.3-.9-.4-1.4-.7-1.4-.7 4.5.3 10 .5 14.4.4 2.2 0 4.1-.1 5.5-.2.7 0 1.2-.1 1.6-.1h.6c-3.3 1.4-6.5 2-9.1 2.2z" class="st14"/>
  </g>
  <g class="st13">
    <path d="M-308.5 969.2c1.2-1.9 2.4-3.3 3.3-4.1.9-.8 1.4-1.2 1.4-1.2-2.6 4.6-5.2 10.3-7.3 15-2.1 4.8-3.7 8.3-3.7 8.3 1.2-8 3.8-14.2 6.3-18z" class="st14"/>
  </g>
  <g class="st13">
    <path d="M-310.8 964.1c.8-4.1 1.5-7.3 2-9.4.4-2.2.7-3.3.7-3.3 0 9.9-2.4 21.9-4.9 31.2-2.4 9.4-4.9 16.2-4.9 16.2 2.8-14.8 5.4-26.6 7.1-34.7z" class="st14"/>
  </g>
  <g>
    <path d="M-342.5 1240c-1.6 1-3 1.6-3.9 2-1 .4-1.5.5-1.5.5 3.2-3 7.2-6.3 10.4-9.1 1.6-1.4 3.1-2.6 4.1-3.4 1.1-.8 1.7-1.3 1.7-1.3-3.6 5.7-7.6 9.5-10.8 11.3z" class="st15"/>
  </g>
  <g>
    <path d="M-404.2 1238.9c1.4 1.2 2.4 2.2 3.1 2.9l1.1 1.1c-2.1-.7-4.2-1.9-6.2-3.4-2-1.4-3.7-3.1-5.2-4.7s-2.7-3-3.5-4.1c-.8-1-1.3-1.7-1.3-1.7 5.6 3.8 9.4 7.4 12 9.9z" class="st15"/>
  </g>
  <path d="M-582.2 981.6c-22.3-.6-33.6-24.4-33.6-24.4-1-2.5 1.9-4.4 1.9-4.4.2-2.5 3.7-2.7 3.7-2.7-1.7-4.5 1.3-6.7 3.1-6.4 3 .5 2.9 3.7 3.3 6 .4 2.3 4.6 5.6 8.3 8.5 3.7 2.9 13.9 3.9 13.9 3.9-1.5-2.3-3.5-6.2-2.3-12.2 1.3-6 5-1.9 5-1.9.2 9.1 5.6 11.2 10.6 17s-1 10.6-1 10.6c-3.7 3.3-9.6 6-12.9 6z" class="st1"/>
  <path d="M-480.6 1049c-8-2.1-15.8-6.9-16.5-8.2-.9-1.8-45.1-22.2-64.7-72.3-6.9-3.2-14.9-.5-25.2 17 7.7 13.5 52.1 85.8 86.7 91.7 8.6-.8 19.7-28.2 19.7-28.2z" class="st3"/>
  <path d="M-511.3 1061.1c12.7-33.8 57.5-142.7 57.5-142.7s7.7-7.2 18.4 24.3c3.5 10.3.3 41.3.3 41.3s-19 37.3-27.2 56.4c-2.2 5.3-14.6 37.1-29.8 37.8-21.1 1-19.1-17.2-19.2-17.1z" class="st3"/>
  <g class="st13">
    <path d="M-502.2 1042.4c.2 1.5.5 2.8.8 4 .7 2.4 1.4 4.4 2.1 6.1.6 1.7 1.2 2.9 1.7 3.8.2.5.4.8.5 1 .1.3.2.4.2.4-1.9-1.2-3.5-3.3-4.6-5.5-1.2-2.2-1.8-4.7-2-6.9-.2-2.2 0-4.2.4-5.5l.3-.9.3-.6c.1-.3.2-.5.2-.5-.3 1.7-.2 3.2.1 4.6z" class="st14"/>
  </g>
  <g class="st13">
    <path d="M-498.4 1047.9c1.1 1.6 2.1 2.9 3 3.9s1.7 1.7 2.3 2.3l.9.9c-1.7-.3-3.6-1.1-5.1-2.5s-2.6-3.2-3.2-4.8c-.7-1.7-.9-3.2-1.1-4.2-.2-1.1-.2-1.7-.2-1.7 1.3 2.4 2.3 4.4 3.4 6.1z" class="st14"/>
  </g>
  <g class="st13">
    <path d="M-443.9 969c-1.3-1.9-2.3-3.6-3.1-5.1-1.5-2.9-2-4.8-2-4.8 2.9 2.7 5.6 6.6 7.3 10.1.8 1.7 1.4 3.3 1.7 4.5.2.6.3 1.1.4 1.4s.1.5.1.5c-1.7-2.6-3.2-4.7-4.4-6.6z" class="st14"/>
  </g>
  <g class="st13">
    <path d="M-442.9 968.3c-1.6-5.5-2.1-10.5-2.4-14.5-.3-4.1-.3-7.2-.3-9.3 0-2.1.1-3.2.1-3.2.9 4.6 1.6 9.8 2.3 15 .6 5.2 1.7 10.2 2.8 14.7 1.2 4.5 2.2 8.4 2.9 11.2s1.1 4.5 1.1 4.5c-2.6-6.7-4.9-12.8-6.5-18.4z" class="st14"/>
  </g>
  <path d="M-417.5 1195.4c1-9.5 1.7-14.9 1.7-14.9s-.8 5.4-1.9 14.9c-.6 4.7-1.3 10.5-2 17.1-.7 6.6-1.6 14.1-2.3 22.2-.9 8.1-1.6 17-2.4 26.3-.4 4.7-.7 9.5-1.1 14.4-.3 4.9-.8 9.9-1.1 15-.3 5.1-.7 10.3-1 15.5-.2 2.6-.3 5.2-.5 7.9-.1 2.7-.3 5.3-.4 8l-.9 16.2c-.3 5.4-.5 10.9-.7 16.3-.2 5.4-.4 10.9-.6 16.3-.2 5.4-.3 10.8-.4 16.2s-.3 10.7-.3 16c0 5.3-.1 10.5-.1 15.6-.1 5.2-.2 10.2-.1 15.1 0 4.9.1 9.7.1 14.4 0 4.7.1 9.3.1 13.7 0 4.5.2 8.7.3 12.8.1 4 .2 7.8.3 11.5h.5c-.1-3.7-.2-7.5-.3-11.5-.1-4.1-.2-8.4-.3-12.8 0-4.4-.1-8.9-.1-13.6 0-4.7-.1-9.5-.1-14.4-.1-5 .1-10 .1-15.1.1-5.1.1-10.3.2-15.6.1-5.2.3-10.5.4-15.9.1-5.4.3-10.8.4-16.2.2-5.4.4-10.9.6-16.3s.3-10.9.6-16.3.5-10.8.8-16.2c.1-2.7.3-5.3.4-8 .2-2.6.3-5.3.5-7.9.4-5.2.7-10.4 1-15.5.4-5.1.8-10.1 1.1-15 .4-4.9.7-9.7 1.1-14.4.7-9.3 1.4-18.2 2.2-26.3.8-8.1 1.5-15.6 2.1-22.2.7-6.6 1.3-12.3 2.1-17.3zM-325 1197.8c.4 4.4.9 9.6 1.3 15.5.5 6.8 1.1 14.4 1.7 22.7.5 8.3 1.2 17.3 1.8 26.8.3 4.8.6 9.7.9 14.7.2 5 .5 10.1.7 15.3.3 5.2.4 10.4.6 15.8 0 2.7.1 5.4.2 8.1 0 2.7.1 5.5.1 8.2 0 2.7.1 5.4.1 8.2v16.6c-.1 2.7-.1 5.5-.1 8.3 0 5.5 0 11.1-.1 16.6l-.3 16.5c-.2 10.9-.5 21.7-.7 32.1-.4 20.8-.8 40.2-1.2 56.9 0 2-.1 3.9-.1 5.8h.5c0-1.9.1-3.8.1-5.8.4-16.7.9-36.1 1.4-56.9.3-10.4.5-21.2.8-32.1l.3-16.5s.2-11 .2-16.6v-8.3c-.1-2.8-.1-5.5-.1-8.3-.1-2.8-.1-5.5-.1-8.3-.1-2.7-.1-5.5-.2-8.2-.1-2.8-.1-5.5-.2-8.2l-.3-8.1c-.2-5.3-.3-10.6-.6-15.8-.3-5.2-.5-10.3-.8-15.3-.3-5-.6-9.9-.9-14.7-.6-9.5-1.3-18.5-1.9-26.8-.7-8.3-1.3-16-1.9-22.7-.5-5.8-1-11-1.4-15.4 0 0-.1 0 .2-.1z" class="st15"/>
</svg>
