<svg xmlns="http://www.w3.org/2000/svg" id="Layer_1" xmlns:xlink="http://www.w3.org/1999/xlink" viewBox="-613 973 372 255"><style id="style3682">.st0{fill:#99602E;} .st1{fill:#8C582A;} .st2{fill:#CC584C;} .st3{fill:#B74542;} .st4{clip-path:url(#SVGID_2_);} .st5{fill:#FFFFFF;} .st6{clip-path:url(#SVGID_4_);} .st7{opacity:0.39;} .st8{fill:#041C17;} .st9{fill:#FFD464;} .st10{fill:#A52929;} .st11{fill:#26B99A;} .st12{fill:#197563;} .st13{clip-path:url(#SVGID_6_);} .st14{fill:#CDCFCF;} .st15{fill:#ECF1F1;} .st16{fill:#F0C419;} .st17{fill:#C59D1D;} .st18{fill:#556080;} .st19{fill:#71C285;} .st20{fill:#F0785A;} .st21{clip-path:url(#SVGID_8_);} .st22{clip-path:url(#SVGID_10_);} .st23{clip-path:url(#SVGID_12_);} .st24{clip-path:url(#SVGID_14_);} .st25{clip-path:url(#SVGID_16_);} .st26{clip-path:url(#SVGID_18_);} .st27{clip-path:url(#SVGID_20_);}</style><g id="XMLID_48_"><g id="XMLID_36_"><g id="XMLID_3860_"><path id="XMLID_92_" fill="#99602e" d="M-344.8 1135.657h19v93h-19z" class="st0"/></g><g id="XMLID_3859_"><path id="XMLID_91_" fill="#8c582a" d="M-333 1135.857h7v92.1h-7z" class="st1"/></g><g id="XMLID_3858_"><path id="XMLID_90_" fill="#cc584c" d="M-302.9 1068.457l22-13.1h-91l-29.8 13.1-10.4 27.1v40.3h91v-40.3z" class="st2"/></g><g id="XMLID_3857_"><path id="XMLID_87_" fill="#b74542" d="M-321.1 1135.757h80.5v-40.2l-10.3-26.9-30-13.4-22 13.2-18.2 27.2v40.1z" class="st3"/></g><g id="XMLID_3825_"><g id="g3695" transform="translate(-.3 -.343)"><defs id="defs3697"><path id="SVGID_1_" d="M-302.6 1068.8l22-13.1h-91l-29.8 13.1-10.4 27.1v40.3h91v-40.3z"/></defs><clipPath id="SVGID_2_"><use id="use3701" width="100%" height="100%" xlink:href="#SVGID_1_" overflow="visible"/></clipPath><g id="XMLID_3828_" class="st4" clip-path="url(#SVGID_2_)"><path id="XMLID_89_" fill="#fff" d="M-402.8 1067.5h101.6v2.6h-101.6z" class="st5"/></g></g><g id="g3705" transform="translate(-.3 -.343)"><defs id="defs3707"><path id="SVGID_3_" d="M-302.6 1068.8l22-13.1h-91l-29.8 13.1-10.4 27.1v40.3h91v-40.3z"/></defs><clipPath id="SVGID_4_"><use id="use3711" width="100%" height="100%" xlink:href="#SVGID_3_" overflow="visible"/></clipPath><g id="XMLID_3827_" class="st6" clip-path="url(#SVGID_4_)"><path id="XMLID_88_" fill="#fff" d="M-412.8 1094.6h92.5v2.6h-92.5z" class="st5"/></g></g></g><g id="XMLID_3821_" class="st7" opacity=".39"><g id="XMLID_3824_"><path id="XMLID_86_" fill="#041c17" d="M-336.02 1100.005l-7 7-7-7 7-7z" class="st8"/></g><g id="XMLID_3823_"><path id="XMLID_85_" fill="#041c17" d="M-346.5 1066.657h7v35h-7z" class="st8"/></g><g id="XMLID_3822_"><path id="XMLID_84_" fill="#041c17" d="M-346.5 1066.657l7 7s-3.2 7-7 7h-5.2l-7-7 7-7h5.2z" class="st8"/></g></g><g id="XMLID_3820_"><path id="XMLID_83_" fill="#ffd464" d="M-335.077 1098.985l-7 7-7-7 7-7z" class="st9"/></g><g id="XMLID_3819_"><path id="XMLID_82_" fill="#ffd464" d="M-345.6 1065.857h7v35h-7z" class="st9"/></g><g id="XMLID_3818_"><path id="XMLID_81_" fill="#ffd464" d="M-345.7 1065.857l7 7s-3.2 7-7 7h-5.2l-7-7 7-7h5.2z" class="st9"/></g><g id="XMLID_3830_"><path id="XMLID_309_" fill="#a52929" d="M-275.5 1084.957l5 7.1-5 7.1-4.9-7.1z" class="st10"/></g></g><g id="XMLID_1_"><g id="XMLID_34_"><path id="XMLID_80_" fill="#99602e" d="M-528.8 1110.657h23v118h-23z" class="st0"/></g><g id="XMLID_35_"><path id="XMLID_79_" fill="#8c582a" d="M-513.4 1111.557h8.8v117.1h-8.8z" class="st1"/></g><g id="XMLID_46_"><path id="XMLID_78_" fill="#26b99a" d="M-475.5 1026.857l27.7-16.6h-114.5l-37.5 16.6-13.2 34.1v50.6h114.5v-50.6z" class="st11"/></g><g id="XMLID_41_"><path id="XMLID_77_" fill="#197563" d="M-397.1 1111.557v-50.6l-13-33.9-37.7-16.8-27.7 16.6-23 34.1v50.6h101.4z" class="st12"/></g><g id="XMLID_40_"><path id="XMLID_72_" fill="#26b99a" d="M-498.5 1111.557h101.3l8.8 31.7-2.7 26.1-32.4 19-37.9-3.9-24.3-26.2-12.8-46.7z" class="st11"/></g><g id="XMLID_29_"><g id="XMLID_33_"><path id="XMLID_76_" fill="#fff" d="M-392.07 1031.044l24.045-17.266 1.283 1.787-24.044 17.266z" class="st5"/></g><g id="XMLID_32_"><path id="XMLID_75_" fill="#fff" d="M-440.136 1002.407l4.824-29.407 2.17.356-4.823 29.407z" class="st5"/></g><g id="XMLID_31_"><path id="XMLID_74_" fill="#fff" d="M-511.382 991.894l1.787-1.284 17.207 23.963-1.787 1.283z" class="st5"/></g><g id="XMLID_30_"><path id="XMLID_73_" fill="#fff" d="M-392.853 1085.34l.357-2.17 29.012 4.766-.357 2.17z" class="st5"/></g></g><g id="XMLID_9_"><g id="g3751" transform="translate(-.3 -.343)"><defs id="defs3753"><path id="SVGID_5_" d="M-498.6 1111.8h96.7v-50.6c0-27.9-50.6-50.6-50.6-50.6l-22.7 16.6-23 34.1-.4 50.6v-.1z"/></defs><clipPath id="SVGID_6_"><use id="use3757" width="100%" height="100%" xlink:href="#SVGID_5_" overflow="visible"/></clipPath><g id="XMLID_11_" class="st13" clip-path="url(#SVGID_6_)"><g id="XMLID_28_"><path id="XMLID_71_" fill="#cdcfcf" d="M-423.7 1112c5.1 0 9.2-4.1 9.1-9.2v-38.5h-18.3v38.5c0 5.1 4.1 9.2 9.2 9.2" class="st14"/></g><g id="XMLID_27_"><path id="XMLID_70_" fill="#ecf1f1" d="M-432.8 1102.8c0 5.1 4.1 9.2 9.1 9.2h-101.9c-5.1 0-9.2-4.1-9.2-9.2V1044c0-2.1 1.7-3.7 3.7-3.7h98.3v62.5" class="st15"/></g><g id="XMLID_26_"><path id="XMLID_69_" fill="#f0c419" d="M-486 1049.8h-39.6v53h39.6z" class="st16"/></g><g id="XMLID_23_"><g id="XMLID_25_"><path id="XMLID_68_" fill="#cdcfcf" d="M-476.9 1095.5c-1 0-1.8-.8-1.8-1.8s.8-1.8 1.8-1.8h34.9c1 0 1.8.8 1.8 1.8s-.8 1.8-1.8 1.8h-34.9" class="st14"/></g><g id="XMLID_24_"><path id="XMLID_67_" fill="#cdcfcf" d="M-476.9 1104.7c-1 0-1.8-.9-1.8-1.8 0-1 .8-1.8 1.8-1.8h34.9c1 0 1.8.8 1.8 1.8s-.8 1.8-1.8 1.8h-34.9" class="st14"/></g></g><g id="XMLID_17_"><g id="XMLID_22_"><path id="XMLID_66_" fill="#c59d1d" d="M-517.9 1059.5c-1 0-1.9-.8-1.8-1.8 0-1 .8-1.8 1.8-1.8h22.7c1 0 1.8.8 1.8 1.8s-.8 1.8-1.8 1.8h-22.7" class="st17"/></g><g id="XMLID_21_"><path id="XMLID_65_" fill="#c59d1d" d="M-517.9 1068.7c-1 0-1.9-.9-1.8-1.8 0-1 .8-1.8 1.8-1.8h22.7c1 0 1.8.8 1.8 1.8s-.8 1.8-1.8 1.8h-22.7" class="st17"/></g><g id="XMLID_20_"><path id="XMLID_64_" fill="#c59d1d" d="M-517.9 1077.8c-1 0-1.9-.8-1.8-1.8 0-1 .8-1.8 1.8-1.8h22.7c1 0 1.8.8 1.8 1.8s-.8 1.8-1.8 1.8h-22.7" class="st17"/></g><g id="XMLID_19_"><path id="XMLID_63_" fill="#c59d1d" d="M-517.9 1087c-1 0-1.8-.8-1.8-1.8s.8-1.8 1.8-1.8h22.7c1 0 1.8.8 1.8 1.8s-.8 1.8-1.8 1.8h-22.7" class="st17"/></g><g id="XMLID_18_"><path id="XMLID_62_" fill="#c59d1d" d="M-517.9 1096.2c-1 0-1.9-.8-1.8-1.8 0-1 .8-1.8 1.8-1.8h22.7c1 0 1.8.8 1.8 1.8s-.8 1.8-1.8 1.8h-22.7" class="st17"/></g></g><g id="XMLID_12_"><g id="XMLID_16_"><path id="XMLID_61_" fill="#556080" d="M-447.1 1060.4h6.1v28.3h-6.1z" class="st18"/></g><g id="XMLID_15_"><path id="XMLID_60_" fill="#f0c419" d="M-457.3 1068.3h6.1v20.4h-6.1z" class="st16"/></g><g id="XMLID_14_"><path id="XMLID_59_" fill="#71c285" d="M-467.5 1062.6h6.1v26.1h-6.1z" class="st19"/></g><g id="XMLID_13_"><path id="XMLID_58_" fill="#f0785a" d="M-477.7 1050.1h6.1v38.6h-6.1z" class="st20"/></g></g></g></g></g><g id="XMLID_8_" class="st7" opacity=".39"><path id="XMLID_55_" fill="#041c17" d="M-472 1031.357l32.7-17.2-8.9-3.9-27.7 16.6-23 33.7-.4 50.1h8.5v-49.8z" class="st8"/></g><g id="XMLID_44_"><g id="g3794" transform="translate(-.3 -.343)"><defs id="defs3796"><path id="SVGID_7_" d="M-475.2 1027.2l27.7-16.6H-562l-37.5 16.6-13.2 34.1v50.6h114.5v-50.6z"/></defs><clipPath id="SVGID_8_"><use id="use3800" width="100%" height="100%" xlink:href="#SVGID_7_" overflow="visible"/></clipPath><g id="XMLID_43_" class="st21" clip-path="url(#SVGID_8_)"><path id="XMLID_57_" fill="#fff" d="M-601.3 1026.1h127.8v2.2h-127.8z" class="st5"/></g></g><g id="g3804" transform="translate(-.3 -.343)"><defs id="defs3806"><path id="SVGID_9_" d="M-475.2 1027.2l27.7-16.6H-562l-37.5 16.6-13.2 34.1v50.6h114.5v-50.6z"/></defs><clipPath id="SVGID_10_"><use id="use3810" width="100%" height="100%" xlink:href="#SVGID_9_" overflow="visible"/></clipPath><g id="XMLID_45_" class="st22" clip-path="url(#SVGID_10_)"><path id="XMLID_56_" fill="#fff" d="M-614 1060.2h116.4v2.2H-614z" class="st5"/></g></g></g><g id="XMLID_5_" class="st7" opacity=".39"><g id="XMLID_47_"><path id="XMLID_54_" fill="#041c17" d="M-517.13 1066.423l-8.84 8.84-8.84-8.84 8.84-8.84z" class="st8"/></g><g id="XMLID_7_"><path id="XMLID_53_" fill="#041c17" d="M-530.4 1024.557h8.8v44h-8.8z" class="st8"/></g><g id="XMLID_6_"><path id="XMLID_52_" fill="#041c17" d="M-530.4 1024.557l8.8 8.8s-4 8.8-8.8 8.8h-6.6l-8.8-8.8 8.8-8.8h6.6z" class="st8"/></g></g><g id="XMLID_39_"><path id="XMLID_51_" fill="#f0785a" d="M-516.032 1065.318l-8.838 8.84-8.84-8.84 8.84-8.84z" class="st20"/></g><g id="XMLID_38_"><path id="XMLID_50_" fill="#f0785a" d="M-529.3 1023.457h8.8v44h-8.8z" class="st20"/></g><g id="XMLID_37_"><path id="XMLID_49_" fill="#f0785a" d="M-529.3 1023.457l8.8 8.8s-4 8.8-8.8 8.8h-6.6l-8.8-8.8 8.8-8.8h6.6z" class="st20"/></g></g></g><g id="XMLID_94_"><g id="XMLID_172_"><g id="XMLID_201_"><path id="XMLID_202_" fill="#99602e" d="M1595.2 1682.657h19v93h-19z" class="st0"/></g><g id="XMLID_199_"><path id="XMLID_200_" fill="#8c582a" d="M1595.6 1682.757h7v92.3h-7z" class="st1"/></g><g id="XMLID_197_"><path id="XMLID_198_" fill="#cc584c" d="M1590.7 1642.357v40.4h91.2v-40.4l-10.5-27.1-29.8-13.2h-91.2l22.1 13.2z" class="st2"/></g><g id="XMLID_195_"><path id="XMLID_196_" fill="#b74542" d="M1590.7 1682.757v-40.3l-18.3-27.1-22-13.2-30 13.4-10.3 27v40.3l80.6-.1z" class="st3"/></g><g id="XMLID_188_"><g id="g3838" transform="translate(-.3 -.343)"><defs id="defs3840"><path id="SVGID_11_" d="M1591 1642.7v40.4h91.2v-40.4l-10.5-27.1-29.8-13.2h-91.2l22.1 13.2z"/></defs><clipPath id="SVGID_12_"><use id="use3844" width="100%" height="100%" xlink:href="#SVGID_11_" overflow="visible"/></clipPath><g id="XMLID_193_" class="st23" clip-path="url(#SVGID_12_)"><path id="XMLID_194_" fill="#fff" d="M1571.4 1614.3h101.7v2.6h-101.7z" class="st5"/></g></g><g id="g3848" transform="translate(-.3 -.343)"><defs id="defs3850"><path id="SVGID_13_" d="M1591 1642.7v40.4h91.2v-40.4l-10.5-27.1-29.8-13.2h-91.2l22.1 13.2z"/></defs><clipPath id="SVGID_14_"><use id="use3854" width="100%" height="100%" xlink:href="#SVGID_13_" overflow="visible"/></clipPath><g id="XMLID_191_" class="st24" clip-path="url(#SVGID_14_)"><path id="XMLID_192_" fill="#fff" d="M1590.6 1641.4h92.7v2.6h-92.7z" class="st5"/></g></g></g><g id="XMLID_181_" class="st7" opacity=".39"><g id="XMLID_186_"><path id="XMLID_187_" fill="#041c17" d="M1612.575 1639.774l7 7-7 7-7-7z" class="st8"/></g><g id="XMLID_184_"><path id="XMLID_185_" fill="#041c17" d="M1609.1 1613.457h7v35.1h-7z" class="st8"/></g><g id="XMLID_182_"><path id="XMLID_183_" fill="#041c17" d="M1621.4 1613.457l7 7-7 7h-5.3c-3.9 0-7-7-7-7l7-7h5.3z" class="st8"/></g></g><g id="XMLID_179_"><path id="XMLID_180_" fill="#ffd464" d="M1611.65 1638.945l7.002 7-7 7-7-7z" class="st9"/></g><g id="XMLID_177_"><path id="XMLID_178_" fill="#ffd464" d="M1608.3 1612.557h7v35.1h-7z" class="st9"/></g><g id="XMLID_175_"><path id="XMLID_176_" fill="#ffd464" d="M1620.5 1612.557l7 7-7 7h-5.3c-3.9 0-7-7-7-7l7-7h5.3z" class="st9"/></g><g id="XMLID_173_"><path id="XMLID_174_" fill="#a52929" d="M1549.6 1638.957l-5 7.1-4.9-7.1 4.9-7.1z" class="st10"/></g></g><g id="XMLID_95_"><g id="XMLID_170_"><path id="XMLID_171_" fill="#99602e" d="M1775.2 1657.657h23v117h-23z" class="st0"/></g><g id="XMLID_168_"><path id="XMLID_169_" fill="#8c582a" d="M1774.6 1658.457h8.8v116.2h-8.8z" class="st1"/></g><g id="XMLID_166_"><path id="XMLID_167_" fill="#26b99a" d="M1768.4 1607.657v50.8h114.7v-50.8l-13.2-34.1-37.5-16.6h-114.7l27.7 16.6z" class="st11"/></g><g id="XMLID_164_"><path id="XMLID_165_" fill="#197563" d="M1768.4 1658.457v-50.8l-23-34.1-27.7-16.6-37.7 16.8-13 33.9v50.7l101.4.1z" class="st12"/></g><g id="XMLID_162_"><path id="XMLID_163_" fill="#26b99a" d="M1755.6 1705.157l-24.3 26.3-37.9 3.9-32.5-19.1-2.7-26.1 8.8-31.8h101.5l-12.9 46.8z" class="st11"/></g><g id="XMLID_153_"><g id="XMLID_160_"><path id="XMLID_161_" fill="#fff" d="M1659.966 1579.65l-24.042-17.264 1.284-1.787 24.04 17.263z" class="st5"/></g><g id="XMLID_158_"><path id="XMLID_159_" fill="#fff" d="M1707.37 1549.507l-4.842-29.506 2.17-.353 4.842 29.505z" class="st5"/></g><g id="XMLID_156_"><path id="XMLID_157_" fill="#fff" d="M1763.72 1562.583l-1.786-1.283 17.266-24.04 1.787 1.282z" class="st5"/></g><g id="XMLID_154_"><path id="XMLID_155_" fill="#fff" d="M1633.223 1636.973l-.356-2.17 29.012-4.767.353 2.17z" class="st5"/></g></g><g id="XMLID_118_"><g id="g3894" transform="translate(-.3 -.343)"><defs id="defs3896"><path id="SVGID_15_" d="M1769.1 1658.8l-.4-50.7-23-34.1-22.8-16.6s-50.7 22.7-50.7 50.7v50.7h96.9z"/></defs><clipPath id="SVGID_16_"><use id="use3900" width="100%" height="100%" xlink:href="#SVGID_15_" overflow="visible"/></clipPath><g id="XMLID_121_" class="st25" clip-path="url(#SVGID_16_)"><g id="XMLID_151_"><path id="XMLID_152_" fill="#cdcfcf" d="M1694.1 1658.8c5.1 0 9.2-4.1 9.2-9.2V1611h-18.4v38.6c0 5.1 4.1 9.2 9.2 9.2" class="st14"/></g><g id="XMLID_149_"><path id="XMLID_150_" fill="#ecf1f1" d="M1703.3 1649.7v-62.6h98.4c2 0 3.7 1.6 3.7 3.7v58.9c0 5.1-4.1 9.2-9.2 9.2h-102.1c5.1-.1 9.2-4.2 9.2-9.2" class="st15"/></g><g id="XMLID_147_"><path id="XMLID_148_" fill="#f0c419" d="M1756.6 1649.7h39.6v-53.2h-39.6z" class="st16"/></g><g id="XMLID_142_"><g id="XMLID_145_"><path id="XMLID_146_" fill="#cdcfcf" d="M1747.4 1642.3h-34.9c-1 0-1.8-.8-1.8-1.8s.8-1.8 1.8-1.8h34.9c1 0 1.8.8 1.8 1.8s-.8 1.8-1.8 1.8" class="st14"/></g><g id="XMLID_143_"><path id="XMLID_144_" fill="#cdcfcf" d="M1747.4 1651.5h-34.9c-1 0-1.8-.8-1.8-1.8s.8-1.8 1.8-1.8h34.9c1 0 1.8.8 1.8 1.8s-.8 1.8-1.8 1.8" class="st14"/></g></g><g id="XMLID_131_"><g id="XMLID_140_"><path id="XMLID_141_" fill="#c59d1d" d="M1788.5 1606.2h-22.7c-1 0-1.8-.8-1.8-1.8s.8-1.8 1.8-1.8h22.7c1 0 1.8.8 1.8 1.8s-.8 1.8-1.8 1.8" class="st17"/></g><g id="XMLID_138_"><path id="XMLID_139_" fill="#c59d1d" d="M1788.5 1615.4h-22.7c-1 0-1.8-.8-1.8-1.8s.8-1.8 1.8-1.8h22.7c1 0 1.8.8 1.8 1.8s-.8 1.8-1.8 1.8" class="st17"/></g><g id="XMLID_136_"><path id="XMLID_137_" fill="#c59d1d" d="M1788.5 1624.6h-22.7c-1 0-1.8-.8-1.8-1.8s.8-1.8 1.8-1.8h22.7c1 0 1.8.8 1.8 1.8s-.8 1.8-1.8 1.8" class="st17"/></g><g id="XMLID_134_"><path id="XMLID_135_" fill="#c59d1d" d="M1788.5 1633.8h-22.7c-1 0-1.8-.8-1.8-1.8s.8-1.8 1.8-1.8h22.7c1 0 1.8.8 1.8 1.8s-.8 1.8-1.8 1.8" class="st17"/></g><g id="XMLID_132_"><path id="XMLID_133_" fill="#c59d1d" d="M1788.5 1643h-22.7c-1 0-1.8-.8-1.8-1.8s.8-1.8 1.8-1.8h22.7c1 0 1.8.8 1.8 1.8s-.8 1.8-1.8 1.8" class="st17"/></g></g><g id="XMLID_122_"><g id="XMLID_129_"><path id="XMLID_130_" fill="#556080" d="M1711.4 1607.2h6.1v28.3h-6.1z" class="st18"/></g><g id="XMLID_127_"><path id="XMLID_128_" fill="#f0c419" d="M1721.6 1615.1h6.1v20.5h-6.1z" class="st16"/></g><g id="XMLID_125_"><path id="XMLID_126_" fill="#71c285" d="M1731.9 1609.4h6.1v26.1h-6.1z" class="st19"/></g><g id="XMLID_123_"><path id="XMLID_124_" fill="#f0785a" d="M1742.1 1596.8h6.1v38.7h-6.1z" class="st20"/></g></g></g></g></g><g id="XMLID_116_" class="st7" opacity=".39"><path id="XMLID_117_" fill="#041c17" d="M1760.2 1607.657v50h8.6l-.4-50.3-23-33.8-27.7-16.6-8.9 4 32.7 17.2z" class="st8"/></g><g id="XMLID_109_"><g id="g3937" transform="translate(-.3 -.343)"><defs id="defs3939"><path id="SVGID_17_" d="M1768.7 1608v50.8h114.7V1608l-13.2-34.1-37.5-16.6H1718l27.7 16.6z"/></defs><clipPath id="SVGID_18_"><use id="use3943" width="100%" height="100%" xlink:href="#SVGID_17_" overflow="visible"/></clipPath><g id="XMLID_114_" class="st26" clip-path="url(#SVGID_18_)"><path id="XMLID_115_" fill="#fff" d="M1744 1572.8h128v2.2h-128z" class="st5"/></g></g><g id="g3947" transform="translate(-.3 -.343)"><defs id="defs3949"><path id="SVGID_19_" d="M1768.7 1608v50.8h114.7V1608l-13.2-34.1-37.5-16.6H1718l27.7 16.6z"/></defs><clipPath id="SVGID_20_"><use id="use3953" width="100%" height="100%" xlink:href="#SVGID_19_" overflow="visible"/></clipPath><g id="XMLID_112_" class="st27" clip-path="url(#SVGID_20_)"><path id="XMLID_113_" fill="#fff" d="M1768.1 1606.9h116.6v2.2h-116.6z" class="st5"/></g></g></g><g id="XMLID_102_" class="st7" opacity=".39"><g id="XMLID_107_"><path id="XMLID_108_" fill="#041c17" d="M1795.932 1604.478l8.84 8.84-8.84 8.837-8.84-8.838z" class="st8"/></g><g id="XMLID_105_"><path id="XMLID_106_" fill="#041c17" d="M1791.6 1571.257h8.8v44.1h-8.8z" class="st8"/></g><g id="XMLID_103_"><path id="XMLID_104_" fill="#041c17" d="M1807 1571.257l8.8 8.8-8.8 8.8h-6.6c-4.9 0-8.8-8.8-8.8-8.8l8.8-8.8h6.6z" class="st8"/></g></g><g id="XMLID_100_"><path id="XMLID_101_" fill="#f0785a" d="M1794.755 1603.307l8.84 8.84-8.84 8.838-8.838-8.84z" class="st20"/></g><g id="XMLID_98_"><path id="XMLID_99_" fill="#f0785a" d="M1790.5 1570.157h8.8v44.1h-8.8z" class="st20"/></g><g id="XMLID_96_"><path id="XMLID_97_" fill="#f0785a" d="M1805.9 1570.157l8.8 8.8-8.8 8.8h-6.6c-4.9 0-8.8-8.8-8.8-8.8l8.8-8.8h6.6z" class="st20"/></g></g></g></svg>