<svg xmlns="http://www.w3.org/2000/svg" id="Layer_1" viewBox="0 0 420 70">
    <style>
        .st0{fill:#FFFFFF;} .st1{fill:#EE3040;}
    </style>
    <g id="XMLID_150_">
        <path id="XMLID_200_" d="M91.9 64.3V23.6h28.8v7.6h-20.1v8.5h19.7v7.6h-19.7v16.9h-8.7z" class="st0"/>
        <path id="XMLID_198_" d="M153.4 64.3l-10.2-14.9-10.3 14.9h-10.3l14.8-20.9-13.9-19.8h10.3l9.3 13.9 9.2-13.9h10.4L149 43.3l14.8 20.9h-10.4z" class="st0"/>
        <path id="XMLID_194_" d="M183.3 64.3V23.6h21.4c7.8 0 11.7 4.9 11.7 10.4 0 5.1-3.2 8.5-7 9.3 4.4.7 7.8 4.9 7.8 9.9 0 6.2-4 11-11.8 11h-22.1zm24.3-28.8c0-2.5-1.8-4.3-4.8-4.3h-10.9v8.5h10.9c2.9 0 4.8-1.6 4.8-4.2zm.8 16.5c0-2.6-1.8-4.6-5.2-4.6H192v9.3h11.2c3.2-.1 5.2-1.8 5.2-4.7z" class="st0"/>
        <path id="XMLID_191_" d="M221.8 43.9c0-12.3 9-21.1 21.3-21.1s21.2 8.8 21.2 21.1-9 21.1-21.2 21.1c-12.3 0-21.3-8.8-21.3-21.1zm33.6 0c0-7.6-4.8-13.4-12.3-13.4-7.6 0-12.4 5.7-12.4 13.4 0 7.6 4.8 13.4 12.4 13.4 7.5 0 12.3-5.8 12.3-13.4z" class="st0"/>
        <path id="XMLID_189_" d="M270.1 64.3V23.6h8.7v33.1H296v7.6h-25.9z" class="st0"/>
        <path id="XMLID_187_" d="M305.2 64.3V31.2h-11.9v-7.6h32.5v7.6H314v33.1h-8.8z" class="st0"/>
        <path id="XMLID_186_" d="M58.7 14.1v50.2h9.1V5z" class="st1"/>
        <path id="XMLID_185_" d="M22.4 64.3h9.1V14.4l-9.1 9.2z" class="st1"/>
        <path id="XMLID_184_" d="M4.2 32.3v32h9.1V23.2z" class="st0"/>
        <path id="XMLID_183_" d="M40.5 32.3v32h9.1V23.2z" class="st0"/>
    </g>
</svg>