<svg xmlns="http://www.w3.org/2000/svg" id="Isolation_Mode" class="logo" version="1" viewBox="0 0 200 40">
  <style>
    .st0{fill:#FFFFFF;}
  </style>
  <g id="XMLID_31_">
    <g id="XMLID_33_">
      <path id="XMLID_35_" d="M8.9 19.6l4.2-5.5 6 16.1 3.1-6.8 1.3 2.1L29.6 13s0-.1.1-.1L27.7 0l-11 12.8L5.7 0l-2 12.8 5.2 6.8z" class="st0"/>
      <path id="XMLID_34_" d="M30.2 14.8l-6.6 13.6-1.3-2.1-3.4 7.6L12.6 17l-3.7 4.9-5.7-7.4v.2l-3.2 5L16.7 40l16.6-20.3z" class="st0"/>
    </g>
    <g id="XMLID_3_">
      <path id="XMLID_4_" d="M50.2 27.3l-6.9-17.1h-.1c.1 1 .1 2.1.1 3.2v13.9H42V8.8h2l6.6 16.3h.1l6.6-16.3h2v18.6H58V13.3c0-1 .1-2 .2-3H58l-7 17h-.8z" class="st0"/>
      <path id="XMLID_32_" d="M73.4 20.8h-7.5l-2.6 6.6h-1.4l7.5-18.6h.8l7.3 18.6H76l-2.6-6.6zm-7.1-1.2H73l-2.5-6.7c-.2-.5-.5-1.3-.8-2.2-.2.8-.5 1.5-.7 2.2l-2.7 6.7z" class="st0"/>
      <path id="XMLID_38_" d="M88 9.7c-2.3 0-4.2.7-5.5 2.2s-2 3.5-2 6.1c0 2.6.6 4.7 1.9 6.2s3.1 2.2 5.4 2.2c1.6 0 3-.2 4.3-.6v1.1c-1.2.4-2.8.6-4.6.6-2.6 0-4.7-.8-6.2-2.5s-2.2-4-2.2-7.1c0-1.9.4-3.6 1.1-5 .7-1.4 1.7-2.5 3.1-3.3 1.3-.8 2.9-1.2 4.7-1.2 1.8 0 3.4.3 4.9 1l-.5 1.2c-1.5-.6-2.9-.9-4.4-.9z" class="st0"/>
      <path id="XMLID_40_" d="M97.5 19.2v8.1h-1.3V8.8h4.4c2.3 0 4 .4 5.1 1.3s1.7 2.1 1.7 3.8c0 1.2-.3 2.3-1 3.1-.7.9-1.7 1.5-3 1.8l5 8.5h-1.5l-4.8-8.1h-4.6zm0-1.1h3.5c1.6 0 2.8-.3 3.6-1s1.3-1.7 1.3-3.1c0-1.4-.4-2.4-1.3-3.1s-2.2-1-4.1-1h-3.1v8.2z" class="st0"/>
      <path id="XMLID_43_" d="M127.3 18c0 2.9-.7 5.3-2.2 7s-3.5 2.6-6.1 2.6c-2.6 0-4.6-.9-6.1-2.6s-2.2-4.1-2.2-7c0-3 .7-5.3 2.2-7 1.5-1.7 3.5-2.5 6.1-2.5 2.6 0 4.6.9 6.1 2.6s2.2 4 2.2 6.9zm-15.2 0c0 2.7.6 4.7 1.8 6.2s2.9 2.2 5.1 2.2c2.2 0 3.9-.7 5.1-2.2 1.2-1.4 1.8-3.5 1.8-6.2s-.6-4.7-1.8-6.2c-1.2-1.4-2.9-2.1-5.1-2.1-2.2 0-3.9.7-5.1 2.2-1.2 1.4-1.8 3.5-1.8 6.1z" class="st0"/>
      <path id="XMLID_46_" d="M142.2 22.2c0 1.7-.6 3-1.8 4-1.2 1-2.9 1.4-5 1.4-2 0-3.7-.4-5.3-1.1v-3.7c1.3.6 2.3 1 3.2 1.2.9.2 1.7.3 2.4.3.9 0 1.5-.2 2-.5s.7-.8.7-1.5c0-.4-.1-.7-.3-1s-.5-.6-.9-.8c-.4-.3-1.2-.7-2.4-1.3-1.1-.5-2-1-2.6-1.5s-1-1.1-1.4-1.7-.5-1.4-.5-2.3c0-1.6.6-2.9 1.7-3.9 1.1-.9 2.7-1.4 4.6-1.4 1 0 1.9.1 2.8.3.9.2 1.8.6 2.7 1l-1.3 3.1c-1-.4-1.8-.7-2.5-.9-.6-.2-1.3-.2-1.9-.2-.7 0-1.3.2-1.7.5s-.6.8-.6 1.4c0 .3.1.6.2.9s.4.5.8.7c.4.2 1.2.7 2.5 1.3 1.7.8 2.9 1.7 3.6 2.5s1 2 1 3.2z" class="st0"/>
      <path id="XMLID_48_" d="M158.4 14.6c0 2-.6 3.5-1.9 4.6-1.2 1.1-3 1.6-5.3 1.6h-1.7v6.6h-3.9V8.8h5.9c2.3 0 4 .5 5.1 1.5 1.2.9 1.8 2.3 1.8 4.3zm-8.9 2.9h1.3c1.2 0 2.1-.2 2.7-.7s.9-1.2.9-2.1c0-.9-.3-1.6-.8-2-.5-.4-1.3-.7-2.4-.7h-1.8v5.5z" class="st0"/>
      <path id="XMLID_51_" d="M161.9 27.3V8.8h3.9v18.6h-3.9z" class="st0"/>
      <path id="XMLID_53_" d="M185.4 27.3H181l-4.9-7.8-1.7 1.2v6.6h-3.9V8.8h3.9v8.5l1.5-2.2 5-6.3h4.4l-6.5 8.2 6.6 10.3z" class="st0"/>
      <path id="XMLID_55_" d="M198.5 27.3h-10.7V8.8h10.7V12h-6.8v4.1h6.3v3.2h-6.3v4.8h6.8v3.2z" class="st0"/>
    </g>
  </g>
</svg>
