<?xml version="1.0" encoding="utf-8"?>
<!-- Generator: Adobe Illustrator 19.0.0, SVG Export Plug-In . SVG Version: 6.00 Build 0)  -->
<svg version="1.0" id="Isolation_Mode" xmlns="http://www.w3.org/2000/svg" xmlns:xlink="http://www.w3.org/1999/xlink" x="0px"
	 y="0px" viewBox="0 0 200 40" style="enable-background:new 0 0 200 40;" xml:space="preserve">
<style type="text/css">
	.st0{fill:#FFFFFF;}
</style>
<g id="XMLID_31_">
	<g id="XMLID_33_">
		<path id="XMLID_35_" class="st0" d="M8.9,19.6l4.2-5.5l6,16.1l3.1-6.8l1.3,2.1l6.1-12.5c0,0,0-0.1,0.1-0.1l0,0L27.7,0l-11,12.8
			L5.7,0l-2,12.8L8.9,19.6z"/>
		<polygon id="XMLID_34_" class="st0" points="30.2,14.8 23.6,28.4 22.3,26.3 18.9,33.9 12.6,17 8.9,21.9 3.2,14.5 3.2,14.7 0,19.7 
			16.7,40 33.3,19.7 		"/>
	</g>
	<g id="XMLID_3_">
		<path id="XMLID_4_" class="st0" d="M50.2,27.3l-6.9-17.1h-0.1c0.1,1,0.1,2.1,0.1,3.2v13.9H42V8.8h2l6.6,16.3h0.1l6.6-16.3h2v18.6
			h-1.3V13.3c0-1,0.1-2,0.2-3H58L51,27.3H50.2z"/>
		<path id="XMLID_32_" class="st0" d="M73.4,20.8h-7.5l-2.6,6.6h-1.4l7.5-18.6h0.8l7.3,18.6H76L73.4,20.8z M66.3,19.6H73l-2.5-6.7
			c-0.2-0.5-0.5-1.3-0.8-2.2c-0.2,0.8-0.5,1.5-0.7,2.2L66.3,19.6z"/>
		<path id="XMLID_38_" class="st0" d="M88,9.7c-2.3,0-4.2,0.7-5.5,2.2s-2,3.5-2,6.1c0,2.6,0.6,4.7,1.9,6.2s3.1,2.2,5.4,2.2
			c1.6,0,3-0.2,4.3-0.6v1.1c-1.2,0.4-2.8,0.6-4.6,0.6c-2.6,0-4.7-0.8-6.2-2.5s-2.2-4-2.2-7.1c0-1.9,0.4-3.6,1.1-5
			c0.7-1.4,1.7-2.5,3.1-3.3c1.3-0.8,2.9-1.2,4.7-1.2c1.8,0,3.4,0.3,4.9,1l-0.5,1.2C90.9,10,89.5,9.7,88,9.7z"/>
		<path id="XMLID_40_" class="st0" d="M97.5,19.2v8.1h-1.3V8.8h4.4c2.3,0,4,0.4,5.1,1.3s1.7,2.1,1.7,3.8c0,1.2-0.3,2.3-1,3.1
			c-0.7,0.9-1.7,1.5-3,1.8l5,8.5h-1.5l-4.8-8.1H97.5z M97.5,18.1h3.5c1.6,0,2.8-0.3,3.6-1s1.3-1.7,1.3-3.1c0-1.4-0.4-2.4-1.3-3.1
			s-2.2-1-4.1-1h-3.1V18.1z"/>
		<path id="XMLID_43_" class="st0" d="M127.3,18c0,2.9-0.7,5.3-2.2,7s-3.5,2.6-6.1,2.6c-2.6,0-4.6-0.9-6.1-2.6s-2.2-4.1-2.2-7
			c0-3,0.7-5.3,2.2-7c1.5-1.7,3.5-2.5,6.1-2.5c2.6,0,4.6,0.9,6.1,2.6S127.3,15.1,127.3,18z M112.1,18c0,2.7,0.6,4.7,1.8,6.2
			s2.9,2.2,5.1,2.2c2.2,0,3.9-0.7,5.1-2.2c1.2-1.4,1.8-3.5,1.8-6.2c0-2.7-0.6-4.7-1.8-6.2c-1.2-1.4-2.9-2.1-5.1-2.1
			c-2.2,0-3.9,0.7-5.1,2.2C112.7,13.3,112.1,15.4,112.1,18z"/>
		<path id="XMLID_46_" class="st0" d="M142.2,22.2c0,1.7-0.6,3-1.8,4c-1.2,1-2.9,1.4-5,1.4c-2,0-3.7-0.4-5.3-1.1v-3.7
			c1.3,0.6,2.3,1,3.2,1.2c0.9,0.2,1.7,0.3,2.4,0.3c0.9,0,1.5-0.2,2-0.5c0.5-0.3,0.7-0.8,0.7-1.5c0-0.4-0.1-0.7-0.3-1
			s-0.5-0.6-0.9-0.8c-0.4-0.3-1.2-0.7-2.4-1.3c-1.1-0.5-2-1-2.6-1.5s-1-1.1-1.4-1.7s-0.5-1.4-0.5-2.3c0-1.6,0.6-2.9,1.7-3.9
			c1.1-0.9,2.7-1.4,4.6-1.4c1,0,1.9,0.1,2.8,0.3c0.9,0.2,1.8,0.6,2.7,1l-1.3,3.1c-1-0.4-1.8-0.7-2.5-0.9c-0.6-0.2-1.3-0.2-1.9-0.2
			c-0.7,0-1.3,0.2-1.7,0.5s-0.6,0.8-0.6,1.4c0,0.3,0.1,0.6,0.2,0.9s0.4,0.5,0.8,0.7c0.4,0.2,1.2,0.7,2.5,1.3
			c1.7,0.8,2.9,1.7,3.6,2.5S142.2,21,142.2,22.2z"/>
		<path id="XMLID_48_" class="st0" d="M158.4,14.6c0,2-0.6,3.5-1.9,4.6c-1.2,1.1-3,1.6-5.3,1.6h-1.7v6.6h-3.9V8.8h5.9
			c2.3,0,4,0.5,5.1,1.5C157.8,11.2,158.4,12.6,158.4,14.6z M149.5,17.5h1.3c1.2,0,2.1-0.2,2.7-0.7s0.9-1.2,0.9-2.1
			c0-0.9-0.3-1.6-0.8-2c-0.5-0.4-1.3-0.7-2.4-0.7h-1.8V17.5z"/>
		<path id="XMLID_51_" class="st0" d="M161.9,27.3V8.8h3.9v18.6H161.9z"/>
		<path id="XMLID_53_" class="st0" d="M185.4,27.3H181l-4.9-7.8l-1.7,1.2v6.6h-3.9V8.8h3.9v8.5l1.5-2.2l5-6.3h4.4l-6.5,8.2
			L185.4,27.3z"/>
		<path id="XMLID_55_" class="st0" d="M198.5,27.3h-10.7V8.8h10.7V12h-6.8v4.1h6.3v3.2h-6.3v4.8h6.8V27.3z"/>
	</g>
</g>
</svg>
