<svg xmlns="http://www.w3.org/2000/svg" id="Layer_1" viewBox="0 0 321.60001 60">
  <style id="style48">
    .st0,.st1{fill:#2980b9;}
  </style>
  <g id="XMLID_150_">
    <g id="XMLID_153_">
      <g id="XMLID_539_">
        <path id="XMLID_567_" d="M83.6 42.7l6.9-35.5 11.4 25.7 11.7-25.6 6.2 35.5h-5.1l-3.2-19.9-9.8 21.4-9.5-21.5-3.5 19.9z" class="st0"/>
        <path id="XMLID_564_" d="M146.3 34.7h-14.1l-3.7 8h-5.4l16.3-35.1 15.8 35.1h-5.5zm-2.1-4.7l-4.9-11.2-5.1 11.2z" class="st0"/>
        <path id="XMLID_562_" d="M182.2 11.5v5.9c-2.9-2.4-5.9-3.6-8.9-3.6-3.4 0-6.2 1.2-8.6 3.7-2.3 2.4-3.5 5.4-3.5 8.9s1.2 6.4 3.5 8.8c2.3 2.4 5.2 3.6 8.6 3.6 1.8 0 3.2-.3 4.5-.9.7-.3 1.4-.7 2.1-1.2.7-.5 1.5-1.1 2.3-1.8v6c-2.8 1.6-5.8 2.4-9 2.4-4.7 0-8.7-1.6-12.1-4.9-3.3-3.3-5-7.3-5-12 0-4.2 1.4-8 4.2-11.2 3.4-4 7.8-6 13.3-6 2.9-.1 5.8.7 8.6 2.3z" class="st0"/>
        <path id="XMLID_559_" d="M199.6 28.6l10.2 14.1h-6.1l-9.4-13.5h-.9v13.5h-5v-33h5.8c4.4 0 7.5.8 9.4 2.5 2.1 1.8 3.2 4.2 3.2 7.2 0 2.3-.7 4.3-2 6-1.2 1.7-3 2.8-5.2 3.2zm-6.2-3.8h1.6c4.7 0 7.1-1.8 7.1-5.4 0-3.4-2.3-5.1-6.9-5.1h-1.8z" class="st0"/>
        <path id="XMLID_556_" d="M212.4 26c0-4.6 1.7-8.6 5.1-12 3.4-3.3 7.5-5 12.2-5 4.7 0 8.7 1.7 12.1 5 3.4 3.4 5.1 7.4 5.1 12.1 0 4.7-1.7 8.8-5.1 12.1-3.4 3.3-7.5 5-12.3 5-4.3 0-8.1-1.5-11.5-4.4-3.7-3.2-5.6-7.5-5.6-12.8zm5 .1c0 3.6 1.2 6.6 3.7 9 2.4 2.3 5.3 3.5 8.4 3.5 3.5 0 6.4-1.2 8.8-3.6 2.4-2.4 3.6-5.4 3.6-8.8 0-3.5-1.2-6.5-3.5-8.8-2.3-2.4-5.2-3.6-8.7-3.6-3.4 0-6.3 1.2-8.7 3.6-2.4 2.3-3.6 5.2-3.6 8.7z" class="st0"/>
        <path id="XMLID_554_" d="M261.1 14.4v28.3h-5V14.4h-7.6V9.7h20.1v4.7z" class="st0"/>
        <path id="XMLID_551_" d="M284.3 28.6l10.2 14.1h-6.1L279 29.2h-.9v13.5h-5v-33h5.8c4.4 0 7.5.8 9.4 2.5 2.1 1.8 3.2 4.2 3.2 7.2 0 2.3-.7 4.3-2 6-1.3 1.7-3 2.8-5.2 3.2zm-6.2-3.8h1.6c4.7 0 7.1-1.8 7.1-5.4 0-3.4-2.3-5.1-6.9-5.1h-1.8z" class="st0"/>
        <path id="XMLID_548_" d="M318.8 34.7h-14.1l-3.7 8h-5.4l16.3-35.1 15.8 35.1h-5.5zm-2-4.7l-4.9-11.2-5.1 11.2z" class="st0"/>
        <path id="XMLID_545_" d="M331.9 42.7v-33h6.9c3.3 0 5.9.3 7.9 1 2.1.6 3.9 1.7 5.6 3.3 3.4 3.1 5.1 7.2 5.1 12.2 0 5.1-1.8 9.2-5.3 12.3-1.8 1.6-3.6 2.7-5.6 3.3-1.8.6-4.4.9-7.8.9zm5-4.7h2.2c2.2 0 4.1-.2 5.6-.7 1.5-.5 2.8-1.3 4-2.4 2.4-2.2 3.7-5.2 3.7-8.7 0-3.6-1.2-6.6-3.6-8.8-2.2-2-5.4-3-9.6-3h-2.3z" class="st0"/>
        <path id="XMLID_543_" d="M381.9 14.4h-13.2v7.9h12.8V27h-12.8v11h13.2v4.7h-18.2v-33h18.2z" class="st0"/>
        <path id="XMLID_540_" d="M399.6 28.6l10.2 14.1h-6.1l-9.4-13.5h-.9v13.5h-5v-33h5.8c4.4 0 7.5.8 9.4 2.5 2.1 1.8 3.2 4.2 3.2 7.2 0 2.3-.7 4.3-2 6-1.2 1.7-3 2.8-5.2 3.2zm-6.2-3.8h1.6c4.7 0 7.1-1.8 7.1-5.4 0-3.4-2.3-5.1-6.9-5.1h-1.8z" class="st0"/>
      </g>
    </g>
    <path id="XMLID_152_" d="M37.2 23.8l-9.9 8.6-9.6-7.9-7.5 22.8L27.3 60l16.6-12.4z" class="st0"/>
    <path id="XMLID_151_" d="M43.8 0L27.3 15.6 10.8 0 0 39.7l4.9 3.6 8.7-32.4 13.7 12.6L41 10.9l8.8 32.4 4.9-3.6z" class="st1"/>
  </g>
</svg>
