<svg xmlns="http://www.w3.org/2000/svg" id="Isolation_Mode" viewBox="-775 1077 48 48">
	<style>
		.st0{fill:#FFFFFF;} .st1{enable-background:new ;} .st2{fill:#1A80B6;}
	</style>
	<circle cx="-751" cy="1101" r="20" class="st0"/>
	<path d="M-739 1091.6v5.1h-24v-5.1h24zm0 6.8v5.1h-24v-5.1h24zm0 6.9v5.1h-24v-5.1h24zm-22.3-10.3h13.7v-1.7h-13.7v1.7zm0 6.9h13.7v-1.7h-13.7v1.7zm0 6.8h13.7v-1.7h-13.7v1.7zm20.6-13.6c.2-.2.4-.6.4-.9 0-.4-.1-.7-.4-.9s-.6-.4-.9-.4c-.4 0-.7.1-.9.4s-.4.6-.4.9c0 .4.1.7.4.9s.6.4.9.4c.4-.1.7-.2.9-.4zm0 6.8c.2-.2.4-.6.4-.9 0-.4-.1-.7-.4-.9s-.6-.4-.9-.4c-.4 0-.7.1-.9.4s-.4.6-.4.9c0 .4.1.7.4.9s.6.4.9.4c.4 0 .7-.1.9-.4zm0 6.9c.2-.2.4-.6.4-.9s-.1-.7-.4-.9-.6-.4-.9-.4c-.4 0-.7.1-.9.4s-.4.6-.4.9.1.7.4.9c.2.3.6.4.9.4.4-.1.7-.2.9-.4z" class="st1 st2"/>
</svg>