<?xml version="1.0" encoding="utf-8"?>
<!-- Generator: Adobe Illustrator 19.0.0, SVG Export Plug-In . SVG Version: 6.00 Build 0)  -->
<svg version="1.1" id="Isolation_Mode" xmlns="http://www.w3.org/2000/svg" xmlns:xlink="http://www.w3.org/1999/xlink" x="0px"
	 y="0px" viewBox="-775 1077 48 48" style="enable-background:new -775 1077 48 48;" xml:space="preserve">
<style type="text/css">
	.st0{fill:#FFFFFF;}
	.st1{enable-background:new    ;}
	.st2{fill:#1A80B6;}
</style>
<g>
	<circle class="st0" cx="-751" cy="1101" r="20"/>
	<g class="st1">
		<path class="st2" d="M-739.1,1106v4.3c0,0.4-0.1,0.7-0.4,0.9s-0.6,0.4-0.9,0.4h-4.3c-0.4,0-0.7-0.1-0.9-0.4s-0.4-0.6-0.4-0.9v-4.3
			c0-0.4,0.1-0.7,0.4-0.9s0.6-0.4,0.9-0.4h1.3v-2.6h-6.9v2.6h1.3c0.4,0,0.7,0.1,0.9,0.4c0.2,0.2,0.4,0.6,0.4,0.9v4.3
			c0,0.4-0.1,0.7-0.4,0.9c-0.2,0.2-0.6,0.4-0.9,0.4h-4.3c-0.4,0-0.7-0.1-0.9-0.4s-0.4-0.6-0.4-0.9v-4.3c0-0.4,0.1-0.7,0.4-0.9
			s0.6-0.4,0.9-0.4h1.3v-2.6h-6.9v2.6h1.3c0.4,0,0.7,0.1,0.9,0.4s0.4,0.6,0.4,0.9v4.3c0,0.4-0.1,0.7-0.4,0.9s-0.6,0.4-0.9,0.4h-4.3
			c-0.4,0-0.7-0.1-0.9-0.4s-0.4-0.6-0.4-0.9v-4.3c0-0.4,0.1-0.7,0.4-0.9s0.6-0.4,0.9-0.4h1.3v-2.6c0-0.5,0.2-0.9,0.5-1.2
			c0.3-0.3,0.7-0.5,1.2-0.5h6.9v-2.6h-1.3c-0.4,0-0.7-0.1-0.9-0.4s-0.4-0.6-0.4-0.9v-4.3c0-0.4,0.1-0.7,0.4-0.9s0.6-0.4,0.9-0.4h4.3
			c0.4,0,0.7,0.1,0.9,0.4c0.2,0.2,0.4,0.6,0.4,0.9v4.3c0,0.4-0.1,0.7-0.4,0.9c-0.2,0.2-0.6,0.4-0.9,0.4h-1.3v2.6h6.9
			c0.5,0,0.9,0.2,1.2,0.5c0.3,0.3,0.5,0.7,0.5,1.2v2.6h1.3c0.4,0,0.7,0.1,0.9,0.4S-739.1,1105.6-739.1,1106z"/>
	</g>
</g>
</svg>
