<svg xmlns="http://www.w3.org/2000/svg" id="Layer_1" viewBox="-547 848.5 501.7 429.7"><style>.st0{fill:#B0B6BB;} .st1{fill:#ECBA16;} .st2{fill:#FF7058;} .st3{fill:#84DBFF;} .st4{fill:#25AE88;}</style><path d="M-309.3 1170.7h26.2V965.5h-26.2z" class="st0"/><path d="M-86.5 1180.2h-26.2v-93.3h-366.9v93.3h-26.2v-119.5h419.3z" class="st0"/><path d="M-440.3 1223.1c0 28.9-23.5 52.4-52.4 52.4s-52.4-23.5-52.4-52.4 23.5-52.4 52.4-52.4 52.4 23.5 52.4 52.4" class="st1"/><path d="M-243.8 1223.1c0 28.9-23.5 52.4-52.4 52.4s-52.4-23.5-52.4-52.4 23.5-52.4 52.4-52.4 52.4 23.5 52.4 52.4" class="st2"/><path d="M-47.2 1223.1c0 28.9-23.5 52.4-52.4 52.4s-52.4-23.5-52.4-52.4 23.5-52.4 52.4-52.4 52.4 23.5 52.4 52.4" class="st3"/><path d="M-393.2 969.5h194V851.1h-194z" class="st4"/></svg>