<?xml version="1.0" encoding="utf-8"?>
<!-- Generator: Adobe Illustrator 19.0.0, SVG Export Plug-In . SVG Version: 6.00 Build 0)  -->
<svg version="1.1" id="Isolation_Mode" xmlns="http://www.w3.org/2000/svg" xmlns:xlink="http://www.w3.org/1999/xlink" x="0px"
	 y="0px" viewBox="-775 1077 48 48" style="enable-background:new -775 1077 48 48;" xml:space="preserve">
<style type="text/css">
	.st0{fill:#FFFFFF;}
	.st1{enable-background:new    ;}
	.st2{fill:#1A80B6;}
</style>
<g>
	<circle class="st0" cx="-751" cy="1101" r="20"/>
	<g class="st1">
		<path class="st2" d="M-756.3,1092.4c1.6-0.9,3.3-1.4,5.2-1.4s3.6,0.5,5.2,1.4c1.6,0.9,2.8,2.2,3.7,3.7s1.4,3.3,1.4,5.2
			s-0.5,3.6-1.4,5.2s-2.2,2.8-3.7,3.7c-1.6,0.9-3.3,1.4-5.2,1.4s-3.6-0.5-5.2-1.4c-1.6-0.9-2.8-2.2-3.7-3.7s-1.4-3.3-1.4-5.2
			s0.5-3.6,1.4-5.2S-757.8,1093.3-756.3,1092.4z M-747.4,1098c0,0-0.1,0.1-0.1,0.1c-0.1,0.1-0.1,0.1-0.2,0.1c0,0,0,0,0.1-0.1
			c0,0,0-0.1,0.1-0.1c0-0.1,0-0.1,0-0.1c0.1-0.1,0.2-0.1,0.3-0.2c0.1-0.1,0.4-0.1,0.7-0.2c0.3-0.1,0.5,0,0.7,0.1c0,0,0-0.1,0.1-0.2
			s0.2-0.2,0.2-0.2c0,0,0.1,0,0.2-0.1s0.2-0.1,0.2-0.1l0-0.3c-0.1,0-0.2,0-0.2-0.1c0-0.1-0.1-0.2-0.1-0.3c0,0,0,0.1-0.1,0.1
			c0-0.1,0-0.1-0.1-0.1c0,0-0.1,0-0.2,0s-0.1,0-0.1,0c-0.1,0-0.2-0.1-0.2-0.1c0,0-0.1-0.1-0.1-0.2c0-0.1,0-0.2-0.1-0.2
			c0,0-0.1-0.1-0.1-0.1s-0.1-0.1-0.1-0.1c0,0,0,0,0-0.1c0,0,0-0.1,0-0.1s0-0.1-0.1-0.1c0,0,0,0-0.1,0s-0.1,0-0.1,0.1
			s-0.1,0.1-0.1,0.1s-0.1,0.1-0.1,0.1c0,0-0.1,0-0.1,0c0,0,0,0-0.1,0c0,0,0,0-0.1,0c0,0,0,0-0.1,0c0,0-0.1,0-0.1,0c0,0-0.1,0-0.1,0
			c0.1,0,0.1-0.1,0-0.1c-0.1,0-0.2,0-0.2,0c0.1,0,0.1-0.1,0.1-0.2s-0.1-0.1-0.1-0.2h0.1c0,0,0-0.1-0.1-0.1s-0.1-0.1-0.2-0.1
			c-0.1,0-0.1-0.1-0.2-0.1c-0.1,0-0.2-0.1-0.5-0.1c-0.2,0-0.4,0-0.4,0c0,0.1-0.1,0.1-0.1,0.1c0,0,0,0.1,0.1,0.2c0,0.1,0,0.1,0,0.2
			c0,0.1,0,0.1-0.1,0.2c-0.1,0.1-0.1,0.1-0.1,0.2c0,0.1,0.1,0.1,0.2,0.2c0.1,0.1,0.2,0.2,0.1,0.3c0,0.1-0.1,0.1-0.2,0.2
			c-0.1,0.1-0.2,0.1-0.2,0.2c0,0.1-0.1,0.2,0,0.2s0.1,0.2,0.1,0.2c0,0,0,0,0,0.1s0,0,0,0.1s-0.1,0-0.1,0.1c0,0-0.1,0-0.1,0l0,0
			c-0.1,0-0.2,0-0.3-0.1c-0.1-0.1-0.1-0.2-0.2-0.3c-0.1-0.2-0.1-0.4-0.2-0.4c-0.2-0.1-0.3-0.1-0.4,0c0-0.1-0.2-0.2-0.5-0.3
			c-0.2-0.1-0.5-0.1-0.8-0.1c0.1,0,0.1-0.1,0-0.2c-0.1-0.1-0.1-0.2-0.3-0.2c0-0.1,0-0.1,0.1-0.2c0-0.1,0-0.2,0-0.2
			c0-0.1,0.1-0.2,0.2-0.3c0,0,0,0,0.1-0.1c0.1-0.1,0.1-0.1,0.1-0.2s0-0.1,0-0.1c0.3,0,0.5,0,0.7-0.1c0,0,0.1-0.1,0.2-0.2
			s0.1-0.2,0.1-0.2c0.1-0.1,0.1-0.1,0.2-0.1c0,0,0.1,0,0.2,0.1s0.1,0.1,0.2,0.1c0.1,0,0.2,0,0.2-0.1c0-0.1,0-0.2-0.1-0.3
			c0.1,0,0.1-0.1,0-0.2c0-0.1-0.1-0.1-0.1-0.1c-0.1,0-0.2,0-0.4,0.1c-0.1,0-0.1,0.1,0,0.1c0,0-0.1,0-0.1,0.1
			c-0.1,0.1-0.1,0.2-0.2,0.2c-0.1,0.1-0.1,0-0.2-0.1c0,0,0-0.1-0.1-0.2c0-0.1-0.1-0.2-0.1-0.2c-0.1,0-0.1,0.1-0.2,0.2
			c0-0.1,0-0.1-0.1-0.2s-0.2-0.1-0.3-0.1c0.2-0.1,0.1-0.2-0.1-0.4c-0.1,0-0.2-0.1-0.3-0.1s-0.2,0-0.3,0.1c0,0.1-0.1,0.1-0.1,0.2
			c0,0,0,0.1,0.1,0.1c0,0,0.1,0.1,0.1,0.1c0,0,0.1,0,0.2,0.1c0.1,0,0.1,0,0.1,0c0.1,0.1,0.2,0.2,0.1,0.2c0,0-0.1,0-0.1,0
			c-0.1,0-0.1,0-0.2,0.1c0,0-0.1,0-0.1,0.1c0,0,0,0.1,0,0.2c0,0.1,0,0.2,0,0.2c0,0-0.1-0.1-0.1-0.2c0-0.1-0.1-0.2-0.1-0.2
			c0.1,0.1,0,0.1-0.3,0.1l-0.1,0c0,0-0.1,0-0.2,0c-0.1,0-0.2,0-0.3,0c-0.1,0-0.1,0-0.2-0.1c0-0.1,0-0.2,0-0.3c0,0,0,0,0.1,0
			c0,0-0.1-0.1-0.1-0.1c-0.1-0.1-0.1-0.1-0.1-0.1c-0.4,0.1-0.8,0.3-1.3,0.5c0.1,0,0.1,0,0.2,0c0,0,0.1,0,0.2-0.1
			c0.1,0,0.1-0.1,0.1-0.1c0.3-0.1,0.5-0.2,0.6-0.1l0.1-0.1c0.1,0.1,0.2,0.3,0.3,0.3c-0.1,0-0.2,0-0.4,0c-0.2,0.1-0.3,0.1-0.3,0.2
			c0.1,0.1,0.1,0.2,0.1,0.2c0,0-0.1-0.1-0.2-0.1s-0.1-0.1-0.2-0.1c-0.1,0-0.1-0.1-0.2-0.1c-0.1,0-0.2,0-0.3,0
			c-1.3,0.7-2.4,1.7-3.1,3c0.1,0.1,0.1,0.1,0.2,0.1c0,0,0.1,0,0.1,0.1s0,0.1,0,0.1c0,0,0.1,0,0.2,0c0.1,0.1,0.1,0.2,0,0.3
			c0,0,0.2,0.1,0.6,0.4c0.2,0.2,0.3,0.2,0.3,0.3c0,0.1,0,0.2-0.1,0.2c0,0,0-0.1-0.1-0.1s-0.1-0.1-0.1-0.1c0,0,0,0.1,0,0.2
			c0,0.1,0.1,0.2,0.1,0.2c-0.1,0-0.1,0.1-0.1,0.2c0,0.1,0,0.3,0,0.5c0,0.2,0,0.3,0,0.3l0,0c0,0.1,0,0.3,0.1,0.5
			c0.1,0.2,0.2,0.3,0.3,0.3c-0.1,0,0,0.2,0.3,0.6c0.1,0.1,0.1,0.1,0.1,0.1c0,0,0.1,0.1,0.2,0.1c0.1,0,0.1,0.1,0.2,0.1
			s0.1,0.1,0.1,0.1c0,0,0.1,0.1,0.1,0.3c0.1,0.2,0.1,0.3,0.2,0.3c0,0.1,0,0.1,0.1,0.3c0.1,0.1,0.1,0.2,0.1,0.3c0,0,0,0,0,0
			c0,0,0,0,0,0c0,0.1,0.1,0.1,0.2,0.2s0.2,0.1,0.2,0.2c0,0,0,0.1,0,0.1c0,0.1,0,0.1,0,0.1c0,0,0.1,0,0.1,0c0-0.2-0.1-0.5-0.3-0.8
			c-0.1-0.2-0.2-0.4-0.2-0.4c0,0-0.1-0.1-0.1-0.2s0-0.2-0.1-0.2c0,0,0,0,0.1,0c0,0,0.1,0,0.1,0s0.1,0,0.1,0.1s0,0,0,0
			c0,0.1,0,0.1,0,0.2s0.1,0.2,0.2,0.2s0.1,0.2,0.2,0.3c0.1,0.1,0.1,0.2,0.2,0.2c0.1,0.1,0.1,0.1,0.2,0.3s0.1,0.2,0,0.2
			c0.1,0,0.2,0,0.3,0.1c0.1,0.1,0.2,0.2,0.2,0.3c0,0.1,0.1,0.2,0.1,0.3c0,0.2,0,0.3,0.1,0.3c0,0.1,0.1,0.1,0.1,0.2
			c0.1,0.1,0.1,0.1,0.2,0.1c0.1,0,0.1,0.1,0.2,0.1c0.1,0,0.1,0.1,0.2,0.1c0,0,0.1,0.1,0.2,0.1c0.1,0.1,0.2,0.1,0.3,0.2
			c0.1,0,0.2,0.1,0.2,0.1c0.1,0,0.1,0,0.2,0s0.1,0,0.2,0c0.1,0,0.3,0,0.4,0.2c0.1,0.2,0.2,0.2,0.3,0.3c0.3,0.2,0.6,0.2,0.7,0.1
			c0,0,0,0,0,0.1c0,0.1,0.1,0.1,0.1,0.2c0,0.1,0.1,0.1,0.1,0.2c0,0,0.1,0.1,0.1,0.1c0,0.1,0.1,0.1,0.2,0.2c0.1,0.1,0.2,0.1,0.2,0.2
			c0.1,0,0.1-0.1,0.1-0.1c0,0.1,0,0.2,0.1,0.3c0.1,0.1,0.2,0.2,0.2,0.1c0.1,0,0.2-0.2,0.2-0.4c-0.3,0.1-0.5,0.1-0.7-0.2
			c0,0,0,0,0-0.1c0,0,0-0.1-0.1-0.1s0-0.1,0-0.1s0-0.1,0-0.1c0,0,0,0,0.1,0c0.1,0,0.1,0,0.1,0c0,0,0-0.1,0-0.2c0-0.1,0-0.1-0.1-0.2
			c0-0.1-0.1-0.2-0.1-0.3c-0.1-0.1-0.1-0.2-0.2-0.2c0,0.1-0.1,0.1-0.2,0.1c-0.1,0-0.2,0-0.2-0.1c0,0,0,0,0,0.1c0,0,0,0.1,0,0.1
			c-0.1,0-0.2,0-0.2,0c0,0,0-0.1,0-0.2c0-0.1,0-0.2,0-0.3c0,0,0-0.1,0.1-0.2s0.1-0.1,0.1-0.2c0-0.1,0-0.1,0.1-0.2
			c0-0.1,0-0.1-0.1-0.1s-0.1,0-0.2,0c-0.2,0-0.3,0.1-0.3,0.3c0,0,0,0.1,0,0.1s0,0.1-0.1,0.2c0,0-0.1,0.1-0.1,0.1c-0.1,0-0.2,0-0.3,0
			s-0.3,0-0.3-0.1c-0.1-0.1-0.2-0.2-0.3-0.4c-0.1-0.2-0.1-0.4-0.1-0.5c0-0.1,0-0.2,0-0.4c0-0.1,0-0.3,0-0.3c0-0.1,0-0.2-0.1-0.3
			c0,0,0.1-0.1,0.1-0.1c0.1-0.1,0.1-0.1,0.1-0.1c0,0,0,0,0.1,0c0,0,0,0,0.1,0c0,0,0,0,0.1,0s0,0,0-0.1c0,0,0,0-0.1,0c0,0,0,0-0.1,0
			c0.1,0,0.2,0,0.4,0c0.2,0,0.3,0,0.4,0c0.1,0.1,0.2,0.1,0.3,0c0,0,0-0.1,0-0.1c0-0.1,0-0.1,0-0.2c0,0.2,0.2,0.3,0.4,0.1
			c0,0,0.1,0,0.2,0.1c0.1,0,0.2,0,0.2,0.1c0,0,0.1,0,0.1,0.1c0,0,0.1,0.1,0.1,0.1s0,0,0.1,0s0.1,0,0.1-0.1c0.1,0.1,0.1,0.2,0.2,0.3
			c0.1,0.4,0.2,0.6,0.3,0.6c0.1,0,0.1,0,0.1,0s0.1-0.1,0.1-0.1c0-0.1,0-0.1,0-0.2c0,0,0-0.1,0-0.2l0-0.1c0-0.1,0-0.2,0-0.2l0-0.1
			c-0.1,0-0.2-0.1-0.2-0.2c0-0.1,0-0.2,0-0.2c0-0.1,0.1-0.2,0.2-0.2c0,0,0,0,0.1,0s0.1-0.1,0.2-0.1c0.1,0,0.1-0.1,0.2-0.1
			c0.2-0.2,0.3-0.3,0.2-0.5c0.1,0,0.1,0,0.1-0.1c0,0,0,0-0.1,0c0,0-0.1,0-0.1-0.1s-0.1,0-0.1,0c0.1,0,0.1-0.1,0-0.2
			c0,0,0.1-0.1,0.1-0.1c0-0.1,0.1-0.1,0.1-0.1c0.1,0.1,0.2,0.1,0.3,0c0.1-0.1,0.1-0.1,0-0.2c0-0.1,0.1-0.1,0.3-0.1s0.2-0.1,0.2-0.1
			c0.1,0,0.1,0,0.1,0c0,0,0-0.1,0-0.2s0-0.1,0-0.2c0,0,0.1-0.1,0.2-0.1c0.1,0,0.2-0.1,0.2-0.1l0.2-0.1c0,0,0-0.1,0-0.1
			c0.2,0,0.3,0,0.4-0.1c0.1-0.1,0.1-0.2-0.1-0.3c0-0.1,0-0.1,0-0.1c-0.1,0-0.1-0.1-0.2-0.1c0,0,0.1,0,0.2,0c0.1,0,0.1,0,0.1,0
			c0.1-0.1,0.1-0.2-0.1-0.2C-747,1097.8-747.2,1097.8-747.4,1098z M-749.6,1109.7c1.8-0.3,3.4-1.2,4.7-2.5c0,0-0.1,0-0.2-0.1
			c-0.1,0-0.1,0-0.2,0c-0.2-0.1-0.3-0.1-0.3-0.1c0-0.1,0-0.1,0-0.2s-0.1-0.1-0.1-0.1c0,0-0.1-0.1-0.2-0.1c-0.1,0-0.1-0.1-0.1-0.1
			c0,0,0,0-0.1-0.1c0,0-0.1-0.1-0.1-0.1c0,0-0.1,0-0.1-0.1c0,0-0.1,0-0.1,0c0,0-0.1,0-0.1,0l0,0c0,0-0.1,0-0.1,0c0,0,0,0-0.1,0
			s0,0-0.1,0c0,0,0,0,0,0c-0.2-0.2-0.3-0.2-0.5-0.3c0,0-0.1,0-0.1-0.1c-0.1,0-0.1-0.1-0.1-0.1c0,0-0.1,0-0.1,0c0,0-0.1,0-0.2,0.1
			c0,0-0.1,0.1-0.1,0.2c0,0.1,0,0.1,0,0.2c-0.1,0-0.1-0.1,0-0.2s0.1-0.2,0-0.2c0-0.1-0.1-0.1-0.1-0.1c-0.1,0-0.1,0-0.2,0.1
			s-0.1,0.1-0.2,0.1c-0.1,0-0.1,0.1-0.1,0.1c0,0-0.1,0-0.1,0.1c-0.1,0-0.1,0.1-0.1,0.1c0,0-0.1,0.1-0.1,0.2c0,0.1,0,0.1-0.1,0.1
			c0,0-0.1-0.1-0.2-0.1c-0.1,0-0.1,0-0.1-0.1c0,0.1,0,0.2,0.1,0.5s0,0.4,0.1,0.5c0.1,0.3,0,0.5-0.2,0.6c-0.2,0.2-0.4,0.4-0.4,0.5
			c0,0.2,0,0.3,0.2,0.3c0,0.1,0,0.2-0.1,0.3c-0.1,0.1-0.1,0.2-0.1,0.3C-749.6,1109.6-749.6,1109.6-749.6,1109.7z"/>
	</g>
</g>
</svg>
