<svg id="Isolation_Mode" xmlns="http://www.w3.org/2000/svg" viewBox="-775 1077 48 48"><style>.st0{fill:#fff}.st1{fill:#1a80b6}</style><circle class="st0" cx="-751" cy="1101" r="20"/><path class="st1" d="M-744.6 1092.4v17.1c0 .6-.2 1.1-.6 1.5-.4.4-.9.6-1.5.6h-8.6c-.6 0-1.1-.2-1.5-.6-.4-.4-.6-.9-.6-1.5v-17.1c0-.6.2-1.1.6-1.5.4-.4.9-.6 1.5-.6h8.6c.6 0 1.1.2 1.5.6.4.4.6.9.6 1.5zm-1.6 14.5v-11.8c0-.1-.1-.3-.2-.4-.1-.1-.2-.2-.4-.2h-8.6c-.1 0-.3.1-.4.2-.1.1-.2.2-.2.4v11.8c0 .1.1.3.2.4.1.1.2.2.4.2h8.6c.1 0 .3-.1.4-.2.2-.1.2-.3.2-.4zm-3.2-14.2c0-.2-.1-.3-.3-.3h-2.7c-.2 0-.3.1-.3.3s.1.3.3.3h2.7c.2 0 .3-.1.3-.3zm-.7 17.8c.3-.3.4-.6.4-.9s-.1-.7-.4-.9c-.3-.3-.6-.4-.9-.4-.4 0-.7.1-.9.4-.3.3-.4.6-.4.9s.1.7.4.9c.3.3.6.4.9.4.4 0 .7-.1.9-.4z"/></svg>