<svg id="Isolation_Mode" xmlns="http://www.w3.org/2000/svg" viewBox="-775 1077 48 48"><style>.st0{fill:#fff}.st1{fill:#1a80b6}</style><circle class="st0" cx="-751" cy="1101" r="20"/><path class="st1" d="M-745.4 1095c.8 1.1 1.3 2.2 1.3 3.4 0 1.2-.4 2.4-1.3 3.4-.8 1.1-2 1.9-3.4 2.5-1.5.6-3 .9-4.7.9-.8 0-1.6-.1-2.4-.2-1.1.8-2.3 1.4-3.7 1.7-.3.1-.7.2-1.2.2-.1 0-.2 0-.3-.1-.1-.1-.1-.2-.2-.3v-.5s0-.1.1-.1l.1-.1c.1-.1 0-.1.1-.1 0-.1.1-.2.3-.3.2-.2.3-.3.3-.4.1-.1.2-.2.3-.4.1-.2.2-.3.3-.5l.3-.6c-1.1-.6-2-1.4-2.6-2.4-.6-.9-1-1.9-1-3 0-1.2.4-2.4 1.3-3.4s2-1.9 3.4-2.5c1.5-.6 3-.9 4.7-.9 1.7 0 3.3.3 4.7.9 1.6.9 2.8 1.7 3.6 2.8zm6.4 6.9c0 1.1-.3 2.1-1 3-.6.9-1.5 1.7-2.6 2.4l.3.6c.1.2.2.4.3.5s.2.3.3.4c.1.1.2.2.3.4l.3.3.1.1c.1.1 0 .1.1.1l.1.1v.5c0 .1-.1.2-.2.3-.1.1-.2.1-.3.1-.4-.1-.8-.1-1.2-.2-1.4-.4-2.6-.9-3.7-1.7-.8.1-1.6.2-2.4.2-2.4 0-4.5-.6-6.3-1.8.5 0 .9.1 1.2.1 1.4 0 2.8-.2 4.1-.6 1.3-.4 2.5-1 3.5-1.7 1.1-.8 2-1.8 2.6-2.8.6-1.1.9-2.2.9-3.4 0-.7-.1-1.4-.3-2 1.2.6 2.1 1.4 2.7 2.4s1.2 1.6 1.2 2.7z"/></svg>