<svg xmlns="http://www.w3.org/2000/svg" id="Layer_1" viewBox="-545 847 508 508"><style>.st0{fill:#324A5E;} .st1{fill:#84DBFF;} .st2{fill:#FF7058;} .st3{fill:#FFFFFF;} .st4{fill:#FFD05B;}</style><circle cx="-291" cy="1101" r="130.8" class="st0"/><path d="M-465 1101c0-96 78-174 174-174 48 0 91.6 19.6 122.8 50.8l31.6-31.6c-39.6-39.6-94-64-154.4-64-120.8.4-218.4 98-218.4 218.8h-26.8l49.2 49.2 48.8-49.2H-465z" class="st1"/><path d="M-94.6 1051.8l-49.2 49.2h26.8c0 96-78 174-174 174-48 0-91.6-19.6-122.8-50.8l-31.6 31.6c39.6 39.6 94.4 64 154.4 64 120.8 0 218.4-98 218.4-218.4h26.8l-48.8-49.6z" class="st2"/><path d="M-303.2 1046.5c-6-2.4-12.2-3.5-18.7-3.5-23 0-42.5 15.2-50.9 36.8h-14.1c-4.6 0-8.1 3.8-8.1 8.1 0 4.6 3.8 8.1 8.1 8.1h10.3c-.3 1.9-.3 4.1-.3 6 0 1.9 0 4.1.3 6h-10.3c-4.6 0-8.1 3.8-8.1 8.1s3.8 8.1 8.1 8.1h14.1c8.1 21.7 27.9 36.8 50.9 36.8 5.1 0 10.3-.8 15.4-2.4 4.3-1.4 6.8-6 5.4-10.3-1.4-4.3-6-6.8-10.3-5.4-3.5 1.1-7 1.6-10.6 1.6-13.8 0-26-8.1-32.8-20.3h34.7c4.6 0 8.1-3.8 8.1-8.1s-3.8-8.1-8.1-8.1h-39.8c-.3-1.9-.5-4.1-.5-6 0-2.2.3-4.1.5-6h40.1c4.6 0 8.1-3.8 8.1-8.1 0-4.6-3.8-8.1-8.1-8.1h-34.9c6.8-12.2 19-20.3 32.8-20.3 4.3 0 8.7.8 12.7 2.4 4.3 1.6 8.9-.5 10.6-4.6 1.6-4.3-.3-9.2-4.6-10.8z" class="st3"/><path d="M-208.5 1110.6c5.5 0 9.6-4.5 9.6-9.6 0-5.5-4.5-9.6-9.6-9.6h-11.7l21.3-33.3c2.7-4.5 1.7-10.6-2.7-13.4-4.5-2.7-10.6-1.7-13.4 2.7l-24.7 38.1-24.4-38.1c-2.7-4.5-8.9-5.8-13.4-2.7-4.5 2.7-5.8 8.9-2.7 13.4l21.3 33.3h-11.7c-5.5 0-9.6 4.5-9.6 9.6 0 5.5 4.5 9.6 9.6 9.6h21.3v9.6h-21.3c-5.5 0-9.6 4.5-9.6 9.6 0 5.5 4.5 9.6 9.6 9.6h21.3v12c0 5.5 4.5 9.6 9.6 9.6 5.5 0 9.6-4.5 9.6-9.6v-12h21.3c5.5 0 9.6-4.5 9.6-9.6 0-5.5-4.5-9.6-9.6-9.6h-21.3v-9.6h21.6z" class="st4"/></svg>