<svg xmlns="http://www.w3.org/2000/svg" id="Layer_1" viewBox="-647.7 1012.7 616.7 344.3"><style>.st0{fill:#146A98;} .st1{fill:#E9EFF4;} .st2{fill:#FF7058;} .st3{fill:#84DBFF;} .st4{fill:#38454F;} .st5{fill:#546A79;} .st6{fill:#E8EDEE;} .st7{fill:#B0B6BB;} .st8{fill:#25AE88;} .st9{fill:#ECBA16;}</style><path d="M-448.8 1357.3h-188.3c-5.8 0-10.6-4.7-10.6-10.6V1106c0-5.8 4.7-10.6 10.6-10.6h188.3c5.8 0 10.6 4.7 10.6 10.6v240.7c-.1 5.8-4.8 10.6-10.6 10.6z" class="st0"/><path d="M-629.5 1111.3h173v230.1h-173z" class="st1"/><path d="M-617.2 1150h17.5v17.5h-17.5zM-617.2 1195.1h17.5v17.5h-17.5zM-617.2 1240.2h17.5v17.5h-17.5zM-617.2 1285.3h17.5v17.5h-17.5z" class="st2"/><g><path d="M-584.3 1149.6h104.7v17.1h-104.7zM-584.3 1194.7h104.7v17.5h-104.7zM-584.3 1239.8h104.7v17.9h-104.7zM-584.3 1284.9h104.7v18.3h-104.7z" class="st3"/></g><g><path d="M-357.6 1312.9v17.7h141.2v-17.7h150.1v-282.5c0-9.8-7.9-17.7-17.7-17.7h-406c-9.8 0-17.7 7.9-17.7 17.7v282.5h150.1z" class="st4"/><path d="M-490 1295.2h406v-264.8h-406z" class="st5"/><path d="M-432.2 1228.5c-2.3 0-4.5-.9-6.2-2.6-3.5-3.5-3.5-9 0-12.5l25.5-25.5c3.4-3.4 9-3.4 12.5 0 3.4 3.5 3.4 9 0 12.5l-25.5 25.5c-1.8 1.8-4 2.6-6.3 2.6M-336 1228.5c-2.3 0-4.5-.9-6.2-2.6l-25.5-25.5c-3.4-3.4-3.4-9 0-12.5 3.4-3.4 9-3.4 12.5 0l25.5 25.5c3.5 3.4 3.5 9 0 12.5-1.8 1.8-4.1 2.6-6.3 2.6M-303.6 1232.3c-2.3 0-4.5-.9-6.2-2.6-3.5-3.5-3.5-9 0-12.5l73.5-73.5c3.4-3.5 9-3.5 12.5 0 3.4 3.4 3.4 9 0 12.5l-73.5 73.5c-1.8 1.8-4 2.6-6.3 2.6M-141.8 1210.9c-2.5 0-5-1.1-6.8-3.2l-43.2-52c-3.1-3.8-2.6-9.3 1.2-12.4 3.8-3.1 9.3-2.6 12.4 1.2l43.2 52c3.1 3.8 2.6 9.3-1.2 12.4-1.6 1.3-3.6 2-5.6 2" class="st6"/><path d="M-216.4 1312.9v17.7h-141.2v-17.7H-543v26.5c0 9.8 7.9 17.7 17.7 17.7h476.7c9.8 0 17.7-7.9 17.7-17.7v-26.5h-185.5z" class="st7"/><g><path d="M-357.6 1180.4c0 14.6-11.9 26.5-26.5 26.5s-26.5-11.9-26.5-26.5 11.9-26.5 26.5-26.5c14.6.1 26.5 11.9 26.5 26.5M-181.1 1136.3c0 14.6-11.9 26.5-26.5 26.5s-26.5-11.9-26.5-26.5 11.9-26.5 26.5-26.5 26.5 11.9 26.5 26.5M-101.6 1224.6c0 14.6-11.9 26.5-26.5 26.5s-26.5-11.9-26.5-26.5 11.9-26.5 26.5-26.5 26.5 11.9 26.5 26.5M-295.8 1242.2c0 14.6-11.9 26.5-26.5 26.5s-26.5-11.9-26.5-26.5 11.9-26.5 26.5-26.5c14.6.1 26.5 11.9 26.5 26.5M-419.4 1242.2c0 14.6-11.9 26.5-26.5 26.5s-26.5-11.9-26.5-26.5 11.9-26.5 26.5-26.5c14.6.1 26.5 11.9 26.5 26.5" class="st8"/></g><g><path d="M-375.3 1065.7h-97.1c-4.9 0-8.8-4-8.8-8.8 0-4.9 4-8.8 8.8-8.8h97.1c4.9 0 8.8 4 8.8 8.8.1 4.8-3.9 8.8-8.8 8.8M-260.5 1065.7H-340c-4.9 0-8.8-4-8.8-8.8 0-4.9 4-8.8 8.8-8.8h79.4c4.9 0 8.8 4 8.8 8.8.1 4.8-3.8 8.8-8.7 8.8M-419.4 1101h-53c-4.9 0-8.8-4-8.8-8.8s4-8.8 8.8-8.8h53c4.9 0 8.8 4 8.8 8.8 0 4.8-3.9 8.8-8.8 8.8M-304.7 1101h-79.4c-4.9 0-8.8-4-8.8-8.8s4-8.8 8.8-8.8h79.4c4.9 0 8.8 4 8.8 8.8.1 4.8-3.9 8.8-8.8 8.8M-260.5 1101h-8.8c-4.9 0-8.8-4-8.8-8.8s4-8.8 8.8-8.8h8.8c4.9 0 8.8 4 8.8 8.8 0 4.8-3.9 8.8-8.8 8.8" class="st9"/></g></g></svg>