<svg id="Isolation_Mode" xmlns="http://www.w3.org/2000/svg" viewBox="-775 1077 48 48"><style>.st0{fill:#fff}.st1{fill:#1a80b6}</style><circle class="st0" cx="-751" cy="1101" r="20"/><path class="st1" d="M-741.1 1091.5c0 2.2-.3 4.1-1 5.8-.7 1.6-1.8 3.2-3.4 4.8-.7.7-1.6 1.5-2.6 2.4l-.3 5.1c0 .1-.1.3-.2.3l-5.1 3c-.1 0-.1.1-.2.1s-.2 0-.3-.1l-.9-.9c-.1-.1-.2-.3-.1-.4l1.1-3.7-3.8-3.8-3.7 1.1h-.1c-.1 0-.2 0-.3-.1l-.9-.9c-.2-.2-.2-.3-.1-.5l3-5.1c.1-.1.2-.2.3-.2l5.1-.3c.9-1 1.6-1.9 2.4-2.6 1.7-1.7 3.3-2.8 4.8-3.5s3.4-1 5.8-1c.1 0 .2 0 .3.1s.2.3.2.4zm-3.3 4.8c.2-.2.4-.6.4-.9s-.1-.7-.4-.9c-.3-.2-.6-.4-.9-.4s-.7.1-.9.4-.4.6-.4.9.1.7.4.9c.2.3.6.4.9.4s.6-.2.9-.4z"/></svg>