<svg xmlns="http://www.w3.org/2000/svg" id="Layer_1" viewBox="-545 847 508 508"><style>.st0{fill:#A9B4C4;} .st1{fill:#CEDEF2;} .st2{fill:#FF7058;} .st3{fill:#8D9FB7;} .st4{fill:#54C0EB;} .st5{fill:#45FFC8;}</style><path d="M-68.2 1223.2l-267.3 31.9V880.8L-68.2 849z" class="st0"/><path d="M-335.5 880.8H-39V1255h-296.5z" class="st1"/><path d="M-265.2 958.1l-21.2-30.9v28.3c0 2.2-1.8 4-4 4s-4-1.8-4-4V914c0-2.2 1.8-4 4-4 1.3 0 2.7.4 3.5 1.8l21.2 30.5V914c0-2.2 1.8-4 4-4s4 1.8 4 4v41.5c0 2.2-1.8 4-4 4-1.3.4-2.6-.5-3.5-1.4zM-206.5 955.5c0 2.2-1.8 4-4 4H-233c-2.2 0-4-1.8-4-4V914c0-2.2 1.8-4 4-4h22.5c2.2 0 4 1.8 4 4s-1.8 4-4 4H-229v12.4h14.6c2.2 0 4 1.8 4 4s-1.8 4-4 4H-229v12.4h18.6c1.7.7 3.9 2.5 3.9 4.7zM-125.6 914.4c0 .4 0 .9-.4 1.8l-17.2 41.1c-.4 1.8-2.2 2.7-3.5 2.7-1.8 0-3.1-.9-4-2.7L-156 944l-5.7 13.3c-.4 1.8-2.2 2.7-3.5 2.7-1.8 0-3.1-.9-4-2.7l-17.2-41.1c0-.4-.4-.9-.4-1.8 0-2.2 1.8-4 4-4 1.8 0 3.1.9 3.5 2.7l13.3 32.3 4.9-11.5-7.1-17.2c0-.4-.4-.9-.4-1.8 0-2.2 1.8-4 4-4 1.8 0 3.1.9 3.5 2.7l4 9.7 4-9.7c.4-1.8 2.2-2.7 3.5-2.7 2.7 0 4 2.2 4 4 0 .4 0 .9-.4 1.8l-7.5 17.2 4.9 11.5 13.3-32.3c.4-1.8 2.2-2.7 3.5-2.7.4 0 1.3 0 1.8.4 3.5.5 4.4 1.8 4.4 3.6zM-80.1 943.1v.9c0 4-1.8 8-4.4 11-3.1 3.1-7.5 4.9-11.9 4.9h-.4c-6.2 0-11-3.5-13.7-8.8-.4-.4-.4-1.3-.4-1.8 0-1.8.9-3.1 2.2-3.5.4-.9.9-.9 1.8-.9 1.8 0 3.1.9 4 2.2 1.3 2.7 3.5 4 6.6 4h.4c2.7 0 4.4-.9 6.2-2.2 1.3-1.3 2.2-3.1 2.2-5.3v-.4c0-3.1-6.2-6.2-9.3-7.1h-.4c-7.5-2.7-11-7.1-11-13.7v-.4c0-3.5 1.8-7.1 4.9-9.3 2.7-1.8 6.2-3.1 9.7-3.1h.4c3.1 0 6.2 1.3 8.4 3.1.9.9 1.8 2.2 1.8 3.1 0 .9-.4 1.8-.9 2.7-.9.9-2.2 1.8-3.5 1.8-.9 0-1.8 0-2.7-.9s-2.7-1.3-3.5-1.3h-.4c-3.5 0-6.2 1.8-6.2 4.4v.4c0 3.5 2.7 4.9 5.3 5.7 2 .8 14.4 4.8 14.8 14.5z" class="st2"/><g><path d="M-315.2 988.2h110.5v10.2h-110.5zM-315.2 1017.3h110.5v10.2h-110.5zM-315.2 1047h110.5v10.2h-110.5zM-315.2 1076.1h110.5v10.2h-110.5z" class="st3"/></g><g><path d="M-170.2 1159.1h13.9v72h-13.9z" class="st2"/><path d="M-145.5 1142.8h13.9v88.4h-13.9z" class="st4"/><path d="M-120.7 1149.2h13.9v81.9h-13.9z" class="st2"/><path d="M-96 1124.7h13.9v106.5H-96z" class="st4"/><path d="M-71.2 1106.2h13.9v124.9h-13.9z" class="st2"/><circle cx="-113.1" cy="1039.7" r="51.5" class="st4"/><path d="M-118.1 1052.3l-45.7-3.5c4.3 24.1 25.4 42.4 50.7 42.4 28.5 0 51.5-23.1 51.5-51.5 0-20.6-12.1-38.4-29.6-46.7l-26.9 59.3z" class="st5"/><path d="M-71.6 1070.4l-41.4-31v.4l-51.5.5c.3 28.2 23.2 51 51.5 51 16.9 0 32-8.3 41.4-20.9z" class="st2"/></g><g><circle cx="-344.6" cy="1165.4" r="169.2" class="st4"/><path d="M-175.4 1165.4c0 64-35.5 119.7-87.9 148.5v-.1c1.1-11.7 3.9-23.2 8.2-34.1.6-1.5 1.2-3.2.6-4.7-.5-1.2-1.6-2-2.6-2.8-9.4-7.6-10.8-21-13.6-32.8-.4-1.8-1-3.8-2.4-5-1-.9-2.2-1.3-3.5-1.7-6.7-2-13.9-2.5-20.6-4.6-6.7-2.1-13.4-6.3-15.8-12.9-3.2-8.8 1.9-18.2 3.7-27.4.8-3.9.9-7.9.4-11.8-.3-2.3-.7-4.8.6-6.7.8-1.1 2-1.9 3.3-2.5 12.2-6.7 24.7-13.5 38.6-15.1 4.3-.5 9-.3 12.5 2.3 2.5 2 4.1 5 6.7 6.8 2.8 1.9 6.4 2.1 9.9 2.1 10.7-.1 21.4-1.4 31.8-4.1 2.1-.5 4.4-1.3 5.5-3.2 1.9-3.3-1.1-7.2-4.2-9.3-6.8-4.7-15.4-6.9-23.6-6.1-1.8.2-3.7.5-5.3-.4-1.4-.8-2.1-2.2-3-3.5-4.1-6.4-11.3-10.9-18.9-10.6-7.5.3-14.8 6.1-15.8 13.6-.6 4.5.1 10.6-4.1 12.1-1.4.5-2.9.2-4.3 0-5-.9-10.1-2.2-13.9-5.4-3.8-3.3-5.8-9.2-3.1-13.5 7-1.5 13.8-3.6 20.4-6.4l-6-9c-.7-1.1-1.5-2.3-1.4-3.6.4-4.6 8.8-2.8 11.2-6.8 1-1.6.7-3.9 1.9-5.3.9-1.1 2.4-1.3 3.8-1.5 7.2-1.1 14.5-2.2 21.7-3.3 5.2-.8 11.1-2.1 13.4-6.8.7-1.5 1-3.3 1.8-4.7 2.8-5.3 10.8-5.5 14.5-10.2-4.7 1.7-10 2-14.9.8 1.9-4 3.8-8.2 3.2-12.6-.7-4.3-5.1-8.4-9.3-6.8-4.3 1.6-4.9 7.2-4.8 11.8.1 4.2.1 8.4.2 12.7 0 2 0 4.2-1.2 5.8-2.7 3.4-8 1.4-11.7-.8-1 3.6-6.4 3.3-9.3 1-6.1-4.9-6.2-15.4-.3-20.5 2-1.7 4.8-3.1 5.2-5.7.4-2-.8-4.3.4-6 .8-1.1 2.3-1.4 3.6-1.7 8.3-2.1 14.6-9.8 16.1-18.2 37.9 30.4 62.3 77.6 62.3 130.7zM-319.3 1026.9c-2 2.9-4.7 5.4-6.2 8.6-1.2 2.5-1.7 5.2-3.1 7.6-5.2 8.8-20.9 9.1-22.8 19.2-.4 2.3 0 4.8-1 6.8-1.2 2.4-4.3 3.5-7 3.2-7.6-.9-10.9-10.4-10.7-18.1s2.1-16-1.7-22.7c-3.5-6.2-10.7-9-16.7-12.8-5-3.1-9.6-8.5-9.6-14 16.8-5.6 34.7-8.6 53.4-8.6 10.5 0 20.8 1 30.8 2.8.7 10.1.1 20.1-5.4 28zM-385.2 1097.8c-.9 3.6-3.9 7-7.6 7-2.5.1-5.4-1.2-7.2.5-1.5 1.4-1.1 3.7-1 5.8.3 5-1.9 10-5.7 13.3-2.1 1.8-4.6 3.1-6.5 5-2.5 2.6-3.6 6.1-5.1 9.3-7.3 15.1-23.9 23.2-39.8 28.7-5 1.7-10.7 3.9-12.7 8.8-1.6 3.9.1 8.9 3.7 11.1 3.6 2.2 8.8 1.4 11.6-1.8.5 5 1.1 10.2 4.3 14.1 1.9 2.4 4.6 3.9 6.8 6.1 2.2 2.1 3.9 5.3 2.9 8.2-3.1 2.5-8.3 1.8-10.7-1.3-2.1-2.7-2.2-6.5-4.4-9.2-4-4.9-11.7-2.9-18-3.4-10.5-.9-19.1-11.5-17.8-22 .2-1.7.6-3.6-.4-5.1-.8-1.1-2.2-1.6-3.4-2.1-4-1.7-7.4-5-9.3-8.9-1-2.1-1.6-4.5-3.2-6.2-1.2-1.3-2.9-2.1-4.6-2.8 4.9-66.2 47.9-121.9 107.2-145.1.4 4.4-.4 8.8-4.1 10.6-1.1.5-2.3.8-3.2 1.6-1.6 1.5-1.4 4.2-.2 6 1.2 1.8 3.2 2.9 5.1 4.1 10 6.3 18.7 16.6 18.2 28.4-.2 3.6-1.5 7.6-4.8 8.9-2.5 1-5.4.2-8-.7-3.9-1.4-8.2-3.8-8.8-7.9-.4-2.5.8-5.1.9-7.7.1-2.6-1.7-5.7-4.2-5.3-2 .4-2.9 2.8-2.8 4.8 0 2 .6 4.1.1 6-.8 2.9-3.6 4.7-6.3 6.1-2.7 1.5-5.5 3-8.2 4.6-3.9 2.1-7.9 4.4-10.3 8.2-2.4 3.8-2.3 9.4 1.3 12 1.9 1.3 4.3 1.6 6.2 3 2.9 2.2 3.2 6.3 4.6 9.7 1.4 3.3 6 6.1 8.4 3.4.7-.8 1-1.8 1.2-2.9.9-4.7.2-9.5.4-14.2.2-4.8 1.4-9.8 5-12.9 3.6-3.1 10.1-2.9 12.3 1.3.5.9.7 1.8 1.3 2.6 2.8 3.8 9.4-.1 13.3 2.5 2.1 1.4 2.7 4.1 3.2 6.5.5 3.7 1.2 7.6.3 11.3zM-354.7 1264.1c-3.3 4-3.1 9.8-4.5 14.8-3.5 13-17 20.3-25.1 31-1.9 2.5-3.6 5.3-6.2 7-2.4 1.7-5.5 2.3-7.6 4.3-1.2 1.1-2 2.5-2.6 4-6.8-2.4-13.3-5.1-19.7-8.3 0-3.2.2-6.4.6-9.5 1.2-8.9 3.9-18.2.6-26.6-3.1-7.7-10.6-12.5-16.1-18.8-4.3-5-7.4-11-8.9-17.4-.7-2.9-1-6.2.7-8.8 1.1-1.7 3-2.8 4.1-4.5 2.9-4.3.2-10.6 3-14.9 1.4-2.2 4-3.3 6.6-4.1 17.7-5.6 38.6 1.2 49.7 16.1 1.2 1.6 2.3 3.3 4 4.4 4.3 2.8 11.2.8 14.2 4.9 1.1 1.5 1.3 3.5 2.3 5.1 3 4.9 12.1 5.1 12.6 10.8.5 4.6-4.8 7-7.7 10.5z" class="st5"/></g></svg>