<svg xmlns="http://www.w3.org/2000/svg" id="Layer_1" viewBox="-545 847 508 508"><style>.st0{fill:#324A5E;} .st1{fill:#FFFFFF;} .st2{fill:#FF7058;} .st3{fill:#84DBFF;} .st4{fill:#2B3B4E;}</style><circle cx="-291" cy="1101" r="248" class="st0"/><circle cx="-291" cy="1101" r="205.1" class="st1"/><path d="M-132.7 1009c-31.7-54.5-90.7-91.1-158.3-91.1V1100s158.7-90.3 158.3-91z" class="st2"/><path d="M-291 911c-5.4 0-9.7 4.4-9.7 9.7v19c0 5.4 4.4 9.7 9.7 9.7s9.7-4.4 9.7-9.7v-19c0-5.3-4.3-9.7-9.7-9.7zM-291 1252.5c-5.4 0-9.7 4.4-9.7 9.7v19c0 5.4 4.4 9.7 9.7 9.7s9.7-4.4 9.7-9.7v-19c0-5.3-4.3-9.7-9.7-9.7zM-110.7 1091.3h-19c-5.4 0-9.7 4.4-9.7 9.7s4.4 9.7 9.7 9.7h19c5.4 0 9.7-4.4 9.7-9.7s-4.4-9.7-9.7-9.7zM-452.3 1091.3h-19c-5.4 0-9.7 4.4-9.7 9.7s4.4 9.7 9.7 9.7h19c5.4 0 9.7-4.4 9.7-9.7s-4.3-9.7-9.7-9.7z" class="st3"/><path d="M-283.7 1076.2V1015c0-3.9-3.4-7.3-7.3-7.3s-7.3 3.4-7.3 7.3v61.2c2.4-.5 4.9-1 7.3-1s4.9.5 7.3 1z" class="st4"/><path d="M-311 1117.6l-67.2 67.2c-1 1-1 2.4 0 3.4.5.5 1 .5 1.9.5.5 0 1.5 0 1.9-.5l67.7-67.7c-1.8-.5-3.3-2-4.3-2.9z" class="st2"/><path d="M-169.8 1022.3l-103.4 61c3.7 3.4 6.1 7.6 7.4 12.4l102.9-61.2c1.8-1.1 2.7-2.8 3.2-4.7s.5-3.9-.6-5.7c-1.7-2.8-6-3.9-9.5-1.8z" class="st4"/><g><path d="M-131.2 1008.9c-.5-1.5-2.4-1.5-3.4-1l-19.5 11.2c-1.5.5-1.5 2.4-1 3.4s2.4 1.5 3.4 1l19.5-11.2c1.5-1 2-2.4 1-3.4zM-426.9 1179.4c-.5-1.5-2.4-1.5-3.4-1l-19.5 11.2c-1.5.5-1.5 2.4-1 3.4.5 1.5 2.4 1.5 3.4 1l19.5-11.2c1.5-.4 1.5-1.9 1-3.4zM-198.9 1260.8c1.5-.5 1.5-2.4 1-3.4l-11.2-19.5c-.5-1.5-2.4-1.5-3.4-1-1.5.5-1.5 2.4-1 3.4l11.2 19.5c1 1.5 2.4 2 3.4 1zM-369.4 965.1c1.5-.5 1.5-2.4 1-3.4l-11.2-19.5c-.5-1.5-2.4-1.5-3.4-1-1.5.5-1.5 2.4-1 3.4l11.2 19.5c.4 1.5 1.9 1.5 3.4 1zM-198.9 941.2c-1.5-.5-2.9-.5-3.4 1l-11.2 19.5c-.5 1.5-.5 2.9 1 3.4s2.9.5 3.4-1l11.2-19.5c.9-1 .4-2.9-1-3.4zM-369.4 1236.9c-1.5-.5-2.9-.5-3.4 1l-11.2 19.5c-.5 1.5-.5 2.9 1 3.4s2.9.5 3.4-1l11.2-19.5c.4-.9.4-2.9-1-3.4zM-131.2 1193.1c.5-1.5.5-2.9-1-3.4l-19.5-11.2c-1.5-.5-2.9-.5-3.4 1s-.5 2.9 1 3.4l19.5 11.2c1 .9 2.9.4 3.4-1zM-426.9 1022.6c.5-1.5.5-2.9-1-3.4l-19.5-11.2c-1.5-.5-2.9-.5-3.4 1s-.5 2.9 1 3.4l19.5 11.2c.9.4 2.9-.1 3.4-1z" class="st3"/></g><circle cx="-291" cy="1101" r="25.8" class="st0"/></svg>