<svg xmlns="http://www.w3.org/2000/svg" id="Layer_1" viewBox="-545 847 508 508"><style>.st0{fill:#2B3B4E;} .st1{fill:#324A5E;} .st2{fill:#FFFFFF;} .st3{fill:#84DBFF;} .st4{fill:#F1543F;} .st5{fill:#FF7058;}</style><path d="M-273.8 898.8v28.3c-5.7-.5-11.5-1-17.2-1-5.7 0-11.5 0-17.2 1v-28.3h34.4z" class="st0"/><path d="M-231.6 898.8h-118.8c-3.8 0-7.2-3.4-7.2-7.2 0-17.2 13.9-31.6 31.6-31.6h70.4c17.2 0 31.6 13.9 31.6 31.6-.4 3.9-3.8 7.2-7.6 7.2z" class="st1"/><circle cx="-291" cy="1134.1" r="207.9" class="st1"/><circle cx="-291" cy="1134.1" r="172.5" class="st2"/><path d="M-291 983.6c-82.9 0-150.4 67.6-150.4 150.4s67.6 150.4 150.4 150.4 150.4-67.6 150.4-150.4-67.5-150.4-150.4-150.4zm3.8 292.8v-16.8c0-2.4-1.9-3.8-3.8-3.8s-3.8 1.9-3.8 3.8v16.8c-75.2-1.9-136.6-63.2-138.5-138.5h16.8c2.4 0 3.8-1.9 3.8-3.8 0-2.4-1.9-3.8-3.8-3.8h-16.8c1.9-75.2 63.2-136.6 138.5-138.5v16.8c0 2.4 1.9 3.8 3.8 3.8s3.8-1.9 3.8-3.8v-16.8c75.2 1.9 136.6 63.2 138.5 138.5h-16.8c-2.4 0-3.8 1.9-3.8 3.8 0 2.4 1.9 3.8 3.8 3.8h16.8c-1.9 75.7-62.8 136.5-138.5 138.5z" class="st3"/><path d="M-274.2 1059.8h-9.1l-3.8 54.1c-1.4-.5-2.9-.5-4.3-.5s-2.9 0-4.3.5l-3.8-54.1h-9.1l16.8-27.3 17.6 27.3zM-263.2 1182.5l5.3-5.3-22.5-25.9c2.4-1.4 4.8-3.8 6.2-6.7l25.9 22.5 5.3-5.3 6.2 27.3-26.4-6.6z" class="st4"/><circle cx="-291" cy="1134.1" r="20.1" class="st5"/></svg>