<svg xmlns="http://www.w3.org/2000/svg" id="Isolation_Mode" viewBox="-935 517 48 48">
	<style>
		.st0{fill:#FFFFFF;} .st1{enable-background:new ;} .st2{fill:#1A80B6;}
	</style>
	<circle cx="-911" cy="541" r="20" class="st0"/>
	<path d="M-902 543c.3.3.3.6.2.9-.2.4-.4.5-.8.5h-5.1l2.7 6.4c.1.2.1.4 0 .7-.1.2-.2.4-.5.5l-2.4 1c-.2.1-.4.1-.7 0-.2-.1-.4-.2-.5-.5l-2.6-6.1-4.2 4.2c-.2.2-.4.3-.6.3-.1 0-.2 0-.3-.1-.4-.2-.5-.4-.5-.8v-20.1c0-.4.2-.6.5-.8.1 0 .2-.1.3-.1.2 0 .4.1.6.3L-902 543z" class="st1 st2"/>
</svg>